<svg xmlns="http://www.w3.org/2000/svg" xmlns:xlink="http://www.w3.org/1999/xlink" width="1920" zoomAndPan="magnify" viewBox="0 0 1440 809.999993" height="1080" preserveAspectRatio="xMidYMid meet" version="1.2"><defs><clipPath id="270148a9a7"><path d="M 485.375 262 L 655 262 L 655 409 L 485.375 409 Z M 485.375 262 "/></clipPath><clipPath id="bafd494c75"><path d="M 683 230.238281 L 853 230.238281 L 853 377 L 683 377 Z M 683 230.238281 "/></clipPath><clipPath id="fb135d9ed4"><path d="M 761.410156 446.203125 L 931 446.203125 L 931 578.988281 L 761.410156 578.988281 Z M 761.410156 446.203125 "/></clipPath><clipPath id="36bf33d06d"><path d="M 827.15625 349.054688 L 954.089844 349.054688 L 954.089844 495.636719 L 827.15625 495.636719 Z M 827.15625 349.054688 "/></clipPath><clipPath id="383d4e1605"><path d="M 643 484.03125 L 812.546875 484.03125 L 812.546875 578.988281 L 643 578.988281 Z M 643 484.03125 "/></clipPath><clipPath id="ce8213c334"><path d="M 588.664062 557.539062 L 734.765625 557.539062 L 734.765625 578.988281 L 588.664062 578.988281 Z M 588.664062 557.539062 "/></clipPath><clipPath id="22fe150373"><path d="M 898.058594 422.128906 L 954.089844 422.128906 L 954.089844 569 L 898.058594 569 Z M 898.058594 422.128906 "/></clipPath><clipPath id="6a8941079f"><path d="M 588.664062 471.136719 L 700.390625 471.136719 L 700.390625 578.988281 L 588.664062 578.988281 Z M 588.664062 471.136719 "/></clipPath><clipPath id="e19d74c362"><path d="M 827.15625 519.710938 L 954.089844 519.710938 L 954.089844 578.988281 L 827.15625 578.988281 Z M 827.15625 519.710938 "/></clipPath><clipPath id="362fd7d3c7"><path d="M 796.214844 335.296875 L 954.089844 335.296875 L 954.089844 404.507812 L 796.214844 404.507812 Z M 796.214844 335.296875 "/></clipPath></defs><g id="6a255a0ccc"><path style=" stroke:none;fill-rule:nonzero;fill:#656263;fill-opacity:1;" d="M 669.210938 312.671875 L 584.613281 312.671875 L 542.3125 385.964844 L 584.613281 459.253906 L 669.210938 459.253906 L 711.511719 385.964844 Z M 668.714844 313.53125 L 710.519531 385.964844 L 668.714844 458.394531 L 585.109375 458.394531 L 543.304688 385.964844 L 585.109375 313.53125 L 668.714844 313.53125 "/><g clip-rule="nonzero" clip-path="url(#270148a9a7)"><path style=" stroke:none;fill-rule:nonzero;fill:#656263;fill-opacity:1;" d="M 612.285156 262.007812 L 527.6875 262.007812 L 485.386719 335.300781 L 527.6875 408.589844 L 612.285156 408.589844 L 654.585938 335.300781 Z M 611.792969 262.867188 L 653.59375 335.300781 L 611.789062 407.730469 L 528.183594 407.730469 L 486.378906 335.300781 L 528.183594 262.867188 L 611.792969 262.867188 "/></g><g clip-rule="nonzero" clip-path="url(#bafd494c75)"><path style=" stroke:none;fill-rule:nonzero;fill:#656263;fill-opacity:1;" d="M 809.957031 230.242188 L 725.359375 230.242188 L 683.054688 303.53125 L 725.359375 376.824219 L 809.957031 376.824219 L 852.257812 303.53125 Z M 809.460938 231.101562 L 851.265625 303.53125 L 809.460938 375.964844 L 725.851562 375.964844 L 684.050781 303.53125 L 725.851562 231.101562 L 809.460938 231.101562 "/></g><path style=" stroke:none;fill-rule:nonzero;fill:#656263;fill-opacity:1;" d="M 742.550781 386.035156 L 657.953125 386.035156 L 615.652344 459.328125 L 657.953125 532.617188 L 742.550781 532.617188 L 784.851562 459.328125 Z M 742.054688 386.894531 L 783.859375 459.328125 L 742.054688 531.757812 L 658.445312 531.757812 L 616.644531 459.328125 L 658.445312 386.894531 L 742.054688 386.894531 "/><path style=" stroke:none;fill-rule:nonzero;fill:#656263;fill-opacity:1;" d="M 859.183594 330.875 L 774.582031 330.875 L 732.28125 404.167969 L 774.582031 477.457031 L 859.183594 477.457031 L 901.484375 404.167969 Z M 858.6875 331.734375 L 900.492188 404.167969 L 858.6875 476.597656 L 775.078125 476.597656 L 733.273438 404.167969 L 775.078125 331.734375 L 858.6875 331.734375 "/><g clip-rule="nonzero" clip-path="url(#fb135d9ed4)"><path style=" stroke:none;fill-rule:nonzero;fill:#656263;fill-opacity:1;" d="M 888.691406 446.605469 L 804.089844 446.605469 L 761.789062 519.898438 L 804.089844 593.1875 L 888.691406 593.1875 L 930.992188 519.898438 Z M 888.195312 447.464844 L 929.996094 519.898438 L 888.191406 592.328125 L 804.585938 592.328125 L 762.78125 519.898438 L 804.585938 447.464844 L 888.195312 447.464844 "/></g><g clip-rule="nonzero" clip-path="url(#36bf33d06d)"><path style=" stroke:none;fill-rule:nonzero;fill:#656263;fill-opacity:1;" d="M 954.363281 349.054688 L 869.761719 349.054688 L 827.460938 422.34375 L 869.761719 495.632812 L 954.363281 495.632812 L 996.664062 422.34375 Z M 953.867188 349.914062 L 995.671875 422.34375 L 953.867188 494.773438 L 870.257812 494.773438 L 828.453125 422.34375 L 870.257812 349.914062 L 953.867188 349.914062 "/></g><g clip-rule="nonzero" clip-path="url(#383d4e1605)"><path style=" stroke:none;fill-rule:nonzero;fill:#656263;fill-opacity:1;" d="M 770.03125 484.367188 L 685.429688 484.367188 L 643.132812 557.65625 L 685.429688 630.949219 L 770.03125 630.949219 L 812.332031 557.65625 Z M 769.535156 485.226562 L 811.339844 557.65625 L 769.535156 630.089844 L 685.929688 630.089844 L 644.121094 557.65625 L 685.929688 485.226562 L 769.535156 485.226562 "/></g><g clip-rule="nonzero" clip-path="url(#ce8213c334)"><path style=" stroke:none;fill-rule:nonzero;fill:#656263;fill-opacity:1;" d="M 692.449219 557.65625 L 607.847656 557.65625 L 565.546875 630.949219 L 607.847656 704.238281 L 692.449219 704.238281 L 734.75 630.949219 Z M 691.949219 558.515625 L 733.753906 630.949219 L 691.949219 703.378906 L 608.34375 703.378906 L 566.539062 630.949219 L 608.34375 558.515625 L 691.949219 558.515625 "/></g><g clip-rule="nonzero" clip-path="url(#22fe150373)"><path style=" stroke:none;fill-rule:nonzero;fill:#656263;fill-opacity:1;" d="M 1025.308594 422.34375 L 940.707031 422.34375 L 898.40625 495.632812 L 940.707031 568.925781 L 1025.308594 568.925781 L 1067.605469 495.632812 Z M 1024.808594 423.203125 L 1066.613281 495.632812 L 1024.808594 568.066406 L 941.203125 568.066406 L 899.398438 495.632812 L 941.203125 423.203125 L 1024.808594 423.203125 "/></g><g clip-rule="nonzero" clip-path="url(#6a8941079f)"><path style=" stroke:none;fill-rule:nonzero;fill:#656263;fill-opacity:1;" d="M 657.953125 471.351562 L 573.351562 471.351562 L 531.050781 544.644531 L 573.351562 617.9375 L 657.949219 617.9375 L 700.25 544.644531 Z M 657.453125 472.214844 L 699.257812 544.644531 L 657.453125 617.078125 L 573.847656 617.078125 L 532.042969 544.644531 L 573.847656 472.214844 L 657.453125 472.214844 "/></g><g clip-rule="nonzero" clip-path="url(#e19d74c362)"><path style=" stroke:none;fill-rule:nonzero;fill:#656263;fill-opacity:1;" d="M 954.363281 519.898438 L 869.761719 519.898438 L 827.460938 593.1875 L 869.761719 666.480469 L 954.363281 666.480469 L 996.664062 593.1875 Z M 953.867188 520.757812 L 995.671875 593.1875 L 953.867188 665.621094 L 870.257812 665.621094 L 828.453125 593.1875 L 870.257812 520.757812 L 953.867188 520.757812 "/></g><g clip-rule="nonzero" clip-path="url(#362fd7d3c7)"><path style=" stroke:none;fill-rule:nonzero;fill:#656263;fill-opacity:1;" d="M 923.164062 257.585938 L 838.5625 257.585938 L 796.261719 330.875 L 838.5625 404.167969 L 923.164062 404.167969 L 965.464844 330.875 Z M 922.667969 258.445312 L 964.472656 330.875 L 922.667969 403.308594 L 839.0625 403.308594 L 797.257812 330.875 L 839.0625 258.445312 L 922.667969 258.445312 "/></g></g></svg>