<svg xmlns="http://www.w3.org/2000/svg" xmlns:xlink="http://www.w3.org/1999/xlink" width="1200" zoomAndPan="magnify" viewBox="0 0 900 470.999988" height="628" preserveAspectRatio="xMidYMid meet" version="1.2"><g id="648d8b24e5"><path style=" stroke:none;fill-rule:nonzero;fill:#d9d9d9;fill-opacity:1;" d="M -71.308594 58.953125 C -70.300781 58.605469 -69.476562 57.96875 -68.625 57.339844 C -47.023438 41.652344 -23.457031 30.070312 2.539062 23.722656 C 8.875 22.179688 15.355469 21.027344 21.929688 22.847656 C 27.511719 24.390625 29.621094 27.777344 28.253906 33.394531 C 27.203125 37.703125 24.933594 41.457031 22.554688 45.109375 C 15.273438 56.289062 7.023438 66.78125 -0.734375 77.625 C -11.914062 93.269531 -23.351562 108.75 -33.546875 125.074219 C -37.011719 130.621094 -40.292969 136.277344 -42.433594 142.53125 C -43.113281 144.515625 -43.175781 146.480469 -43.308594 148.476562 C -43.410156 150.0625 -41.375 151.246094 -39.429688 151 C -34.71875 150.390625 -30.769531 147.921875 -26.851562 145.597656 C -12.574219 137.121094 0.132812 126.414062 13.648438 116.855469 C 22.0625 110.910156 31.050781 105.890625 40.988281 103 C 47.984375 100.964844 55.308594 99.824219 62.496094 101.449219 C 66.035156 102.25 69.882812 103.03125 72.9375 105.460938 C 73.289062 105.738281 73.855469 105.953125 74.277344 105.890625 C 77.96875 105.398438 81.671875 105.757812 85.34375 104.164062 C 101.019531 97.332031 115.441406 88.179688 130.316406 79.898438 C 149.933594 68.972656 170.25 59.664062 191.378906 52.144531 C 208.832031 45.933594 226.617188 40.828125 244.867188 37.507812 C 262.085938 34.371094 279.460938 33.144531 296.96875 33.710938 C 321.078125 34.492188 344.605469 38.988281 368.046875 44.234375 C 380.824219 47.09375 393.597656 49.933594 406.632812 51.40625 C 416.960938 52.578125 426.761719 50.796875 435.988281 46.015625 C 448.816406 39.371094 462.570312 36.335938 476.859375 34.914062 C 488.757812 33.730469 500.640625 32.746094 512.605469 33.09375 C 516.574219 33.207031 520.492188 33.773438 524.164062 35.367188 C 528.949219 37.445312 529.339844 40.714844 525.203125 43.886719 C 520.359375 47.597656 514.710938 49.933594 509.382812 52.804688 C 500.824219 57.421875 495.105469 64.160156 492.238281 73.480469 C 489.417969 82.65625 486.847656 91.914062 482.988281 100.75 C 477.722656 112.804688 470.542969 123.738281 463.496094 134.765625 C 460.449219 139.527344 457.335938 144.261719 455.195312 149.539062 C 451.585938 158.433594 453.445312 164.886719 461.273438 170.460938 C 466.777344 174.378906 472.960938 177.011719 479.109375 179.6875 C 489.582031 184.234375 499.558594 189.726562 509.394531 195.496094 C 520.183594 201.84375 532.035156 204.746094 544.328125 206.289062 C 555.476562 207.6875 566.722656 207.695312 577.902344 208.726562 C 581.121094 209.023438 584.320312 209.496094 587.480469 210.175781 C 598.867188 212.625 606.117188 219.546875 609.757812 230.523438 C 612.445312 238.617188 613.800781 246.972656 614.976562 255.363281 C 616.917969 269.292969 617.875 283.3125 617.8125 297.363281 C 617.753906 310.601562 616.722656 323.8125 615.242188 336.976562 C 614.191406 346.285156 613.125 355.597656 612.742188 364.957031 C 612.589844 368.679688 612.875 372.40625 613.730469 376.035156 C 615.304688 382.785156 620.191406 385.757812 626.855469 383.78125 C 635.867188 381.105469 642.058594 374.851562 646.902344 367.128906 C 652.613281 358.035156 655.390625 347.808594 657.921875 337.535156 C 662.703125 318.039062 667.117188 298.453125 673.496094 279.394531 C 678.402344 264.734375 685.046875 251.011719 694.734375 238.855469 C 702.308594 229.351562 711.597656 221.996094 722.128906 216.082031 C 729.894531 211.71875 736.5 206.257812 740.089844 197.761719 C 742.207031 192.742188 743.421875 187.503906 744.277344 182.167969 C 746.488281 168.320312 748.390625 154.394531 753.976562 141.347656 C 755.753906 137.195312 757.75 133.128906 759.644531 129.027344 C 760.867188 126.382812 761.949219 123.6875 762.515625 120.816406 C 763.53125 115.613281 760.457031 111.695312 755.128906 111.457031 C 750.972656 111.28125 747.1875 112.753906 743.410156 114.183594 C 738.804688 115.929688 734.371094 118.113281 729.628906 119.5 C 721.5 121.867188 716.113281 120.304688 711.070312 113.566406 C 703.097656 102.917969 700.269531 87.632812 707.429688 76.0625 C 712.058594 68.574219 718.703125 63.46875 726.550781 59.839844 C 734.152344 56.320312 742.15625 54.429688 750.550781 53.789062 C 760.550781 53.03125 769.796875 54.808594 778.160156 60.445312 C 782.871094 63.613281 786.410156 67.902344 789.300781 72.738281 C 793.742188 80.175781 797.078125 88.128906 800.058594 96.242188 C 803.589844 105.832031 801.765625 114.386719 795.875 122.464844 C 791.769531 128.078125 787.191406 133.296875 782.378906 138.261719 C 771.246094 149.753906 764.539062 163.371094 761.546875 178.988281 C 759.253906 190.921875 757.515625 202.945312 754.664062 214.773438 C 750.53125 231.941406 742.792969 247.226562 731.664062 260.929688 C 723.570312 270.898438 718.085938 282.152344 716.75 295.082031 C 715.144531 310.59375 717.097656 325.375 726.335938 338.519531 C 727.417969 340.0625 728.816406 341.265625 730.328125 342.378906 C 732.457031 343.941406 734.894531 344.570312 737.167969 343.273438 C 748.882812 336.535156 761.761719 331.578125 771.1875 321.269531 C 778.59375 313.164062 783.726562 303.679688 788.046875 293.703125 C 794.414062 279.011719 798.515625 263.542969 803.453125 248.359375 C 806.507812 238.976562 809.957031 229.773438 815.789062 221.667969 C 818.648438 217.707031 822.03125 214.269531 826.0625 211.484375 C 838.210938 203.097656 851.503906 203.4375 863.375 212.273438 C 872.992188 219.433594 878.710938 229.328125 883.347656 240.039062 C 888.164062 251.15625 890.992188 263.046875 896.011719 274.035156 C 899.449219 281.566406 898.59375 289.125 898.820312 296.777344 C 898.832031 297.242188 898.945312 297.847656 898.429688 298.074219 C 897.761719 298.371094 897.410156 297.734375 897.0625 297.34375 C 895.023438 294.988281 893.769531 292.179688 892.648438 289.308594 C 889.519531 281.328125 887.753906 272.933594 885.457031 264.703125 C 882 252.308594 878.125 240.101562 870.832031 229.308594 C 867.859375 224.917969 864.277344 221.089844 859.84375 218.148438 C 849.867188 211.535156 838.941406 211.988281 828.953125 219.363281 C 820.292969 225.761719 815.285156 234.699219 811.5 244.472656 C 806.890625 256.382812 803.753906 268.746094 800.171875 280.976562 C 795.164062 298.125 789.125 314.894531 781.964844 331.25 C 780.351562 334.941406 778.828125 338.683594 778.878906 342.871094 C 778.921875 346.132812 780.339844 348.417969 783.210938 349.867188 C 785.382812 350.96875 787.683594 351.699219 790 352.4375 C 793.917969 353.683594 794.804688 355.9375 792.726562 359.445312 C 788.28125 366.953125 781.472656 371.644531 773.5625 374.730469 C 754.316406 382.226562 735.726562 376.28125 723.578125 358.949219 C 715.863281 347.941406 711.710938 335.589844 709.722656 322.402344 C 707.625 308.472656 708.292969 294.773438 712.75 281.328125 C 715.957031 271.660156 721.152344 263.089844 728.09375 255.785156 C 741.003906 242.199219 748.605469 226.078125 752.546875 207.964844 C 754.820312 197.492188 756.085938 186.855469 758.308594 176.386719 C 761.742188 160.164062 769.136719 146.132812 780.925781 134.417969 C 784.988281 130.382812 788.746094 126.0625 792.117188 121.414062 C 797.394531 114.140625 798.578125 106.222656 796.070312 97.753906 C 793.207031 88.105469 789.257812 78.898438 782.914062 70.988281 C 776.605469 63.140625 768.183594 59.128906 758.152344 58.605469 C 747.710938 58.058594 737.960938 60.4375 729 65.847656 C 724.503906 68.5625 720.761719 72.109375 718.242188 76.769531 C 713.28125 85.925781 716.410156 96.910156 725.121094 100.839844 C 730 103.042969 734.945312 102.28125 739.78125 100.582031 C 744.503906 98.929688 749.152344 97.054688 753.863281 95.378906 C 756.621094 94.402344 759.488281 93.867188 762.421875 93.980469 C 772.839844 94.402344 777.347656 105.234375 776.410156 112.136719 C 775.671875 117.566406 773.179688 122.246094 770.230469 126.722656 C 765.652344 133.664062 760.753906 140.402344 757.566406 148.167969 C 753.761719 157.417969 751.917969 167.136719 750.417969 176.949219 C 748.925781 186.660156 747.710938 196.433594 743.648438 205.546875 C 739.957031 213.816406 734.246094 220.082031 726.128906 224.238281 C 719.957031 227.40625 713.652344 230.347656 708.222656 234.792969 C 699.273438 242.117188 692.402344 251.117188 686.910156 261.195312 C 679.222656 275.269531 674.894531 290.554688 670.914062 305.964844 C 666.859375 321.660156 664.484375 337.699219 661.191406 353.550781 C 659.402344 362.167969 657.59375 370.863281 652.878906 378.453125 C 644.3125 392.265625 631.855469 400.734375 615.984375 404.160156 C 613.769531 404.632812 611.457031 404.558594 609.214844 404.230469 C 601.675781 403.152344 597.632812 397.976562 597.332031 389.242188 C 597.054688 381.355469 598.527344 373.648438 599.96875 365.964844 C 602.476562 352.664062 604.914062 339.355469 606.449219 325.898438 C 607.785156 314.183594 608.351562 302.394531 607.445312 290.625 C 606.550781 278.941406 604.390625 267.503906 600.480469 256.351562 C 594.742188 239.964844 583.167969 231.765625 566.175781 230.113281 C 552.433594 228.773438 538.617188 228.117188 524.949219 225.988281 C 511.503906 223.898438 498.890625 219.824219 487.667969 211.894531 C 477.515625 204.714844 466.203125 199.703125 454.917969 194.632812 C 446.738281 190.949219 438.570312 187.214844 431.472656 181.558594 C 423.171875 174.957031 421.988281 167.746094 427.832031 158.910156 C 428.769531 157.5 429.816406 156.152344 430.898438 154.84375 C 437.316406 147.027344 444.601562 140.011719 451.308594 132.453125 C 466.550781 115.261719 477.621094 95.984375 481.898438 73.148438 C 483.453125 64.890625 486.457031 57.207031 491.371094 50.28125 C 494.128906 46.40625 493.132812 44.390625 488.339844 44.007812 C 474.71875 42.9375 462.457031 46.300781 451.945312 55.363281 C 446.429688 60.117188 441.628906 65.621094 435.988281 70.238281 C 424.429688 79.722656 411.394531 81.574219 397.179688 78.261719 C 384.257812 75.25 371.730469 70.929688 359.058594 67.082031 C 358.222656 66.824219 357.378906 66.566406 356.453125 66.585938 C 361.660156 68.367188 366.863281 70.1875 372.089844 71.925781 C 381.976562 75.195312 391.757812 78.816406 402.035156 80.8125 C 415.109375 83.34375 426.640625 80.277344 436.925781 71.855469 C 442.882812 66.96875 447.921875 61.136719 453.785156 56.175781 C 462.136719 49.101562 471.613281 45.203125 482.730469 46.21875 C 486.21875 46.539062 487.8125 48.535156 486.515625 51.382812 C 481.886719 61.578125 480.386719 72.605469 477.671875 83.300781 C 473.75 98.710938 465.863281 112.023438 455.976562 124.304688 C 447.839844 134.417969 438.242188 143.097656 429.027344 152.160156 C 425.796875 155.339844 422.628906 158.578125 420.128906 162.386719 C 415.398438 169.597656 415.992188 175.398438 422.074219 181.539062 C 426.96875 186.488281 432.882812 189.964844 438.964844 193.191406 C 448.664062 198.355469 458.785156 202.71875 468.320312 208.191406 C 472.105469 210.359375 475.941406 212.511719 479.390625 215.164062 C 492.175781 225.007812 506.730469 230.152344 522.53125 232.488281 C 534.277344 234.226562 546.105469 235.246094 557.875 236.777344 C 563.738281 237.539062 569.539062 238.554688 575.125 240.550781 C 585.296875 244.195312 591.800781 251.660156 596.089844 261.238281 C 601.210938 272.667969 603.339844 284.773438 603.957031 297.199219 C 605.101562 320.160156 600.800781 342.472656 596.007812 364.730469 C 593.992188 374.101562 591.5 383.410156 591.304688 393.082031 C 591.273438 394.695312 591.265625 396.332031 591.511719 397.914062 C 592.992188 407.398438 599.308594 412.191406 609.730469 410.730469 C 628.007812 408.160156 642.832031 399.222656 653.941406 384.511719 C 658.960938 377.867188 660.699219 369.75 662.292969 361.738281 C 665.460938 345.792969 667.355469 329.613281 671.046875 313.761719 C 674.769531 297.796875 679.027344 281.976562 686.628906 267.339844 C 694.738281 251.722656 706.011719 239.214844 722.449219 231.933594 C 730.058594 228.558594 736.910156 224.042969 742.25 217.5 C 742.597656 217.066406 743.019531 216.65625 743.472656 216.328125 C 744.503906 215.578125 745.097656 215.761719 745.097656 217.152344 C 745.109375 218.550781 744.75 219.867188 744.390625 221.191406 C 741.582031 231.480469 736.210938 240.347656 728.90625 247.96875 C 716.945312 260.445312 708.4375 274.640625 705.597656 291.933594 C 704.097656 301.066406 703.996094 310.210938 704.765625 319.410156 C 705.652344 329.941406 708.171875 340.0625 712.222656 349.792969 C 717.015625 361.304688 723.558594 371.601562 734.113281 378.730469 C 744.101562 385.476562 755.25 387.390625 767.132812 386.269531 C 776.339844 385.40625 785.15625 382.710938 794.175781 380.992188 C 801.046875 379.6875 806.242188 376.085938 810.324219 370.707031 C 822.269531 355 831.421875 337.839844 836.566406 318.699219 C 838.160156 312.742188 839.179688 306.683594 838.015625 300.5 C 837.164062 295.976562 834.839844 294.164062 830.25 294.1875 C 828.953125 294.195312 827.667969 294.320312 826.371094 294.320312 C 821.96875 294.320312 819.398438 292.363281 818.484375 288.023438 C 817.390625 282.871094 818.007812 277.707031 818.996094 272.625 C 821.199219 261.332031 824.738281 250.570312 832.207031 241.507812 C 835.671875 237.300781 839.859375 233.96875 845.339844 232.941406 C 852.839844 231.53125 858.546875 234.957031 863.175781 240.429688 C 868.9375 247.238281 871.992188 255.375 874.226562 263.882812 C 877.238281 275.382812 878.0625 287.128906 877.363281 298.917969 C 876.5 313.441406 872.722656 327.351562 867.539062 340.917969 C 863.1875 352.304688 858.324219 363.507812 854.785156 375.203125 C 852.304688 383.390625 850.609375 391.703125 852.007812 400.28125 C 853.890625 411.863281 861.511719 418.828125 873.1875 420.207031 C 879 420.894531 884.808594 420.503906 890.621094 420.585938 C 892.71875 420.617188 894.808594 420.742188 896.898438 420.996094 C 898.335938 421.171875 898.832031 421.832031 898.820312 423.199219 C 898.789062 429.105469 898.800781 434.996094 898.820312 440.902344 C 898.820312 442.042969 898.59375 442.847656 897.175781 442.539062 C 892.214844 441.4375 887.515625 442.722656 882.90625 444.246094 C 870.757812 448.265625 859.269531 453.851562 847.6875 459.210938 C 844.691406 460.601562 841.773438 462.195312 838.449219 462.78125 C 834.601562 463.449219 831.597656 462 829.324219 459.027344 C 825.324219 453.792969 824.128906 447.621094 823.863281 441.242188 C 823.195312 425.0625 827.15625 409.691406 832.265625 394.550781 C 837.265625 379.726562 844.332031 365.820312 851.234375 351.851562 C 856.460938 341.277344 861.707031 330.734375 865.675781 319.59375 C 870.019531 307.425781 872.117188 294.90625 871.242188 282.027344 C 870.574219 272.222656 868.621094 262.667969 862.910156 254.316406 C 861.664062 252.496094 860.175781 250.902344 858.375 249.636719 C 855.710938 247.785156 852.828125 246.878906 849.722656 248.453125 C 846.566406 250.046875 845.390625 252.875 845.363281 256.257812 C 845.339844 259.140625 846.234375 261.84375 847.222656 264.5 C 850.164062 272.429688 851.347656 280.628906 850.699219 289.023438 C 849.929688 299.042969 847.511719 308.730469 844.21875 318.214844 C 838.007812 336.132812 829.40625 352.921875 819.933594 369.277344 C 812.96875 381.292969 806.171875 393.398438 798.011719 404.664062 C 791.214844 414.042969 783.242188 422.203125 773.160156 428.117188 C 768.65625 430.757812 763.863281 432.609375 758.707031 433.515625 C 757.011719 433.816406 755.34375 433.929688 753.667969 433.453125 C 751.097656 432.734375 750.210938 430.84375 751.425781 428.433594 C 753.390625 424.546875 756.507812 421.585938 759.480469 418.507812 C 763.636719 414.207031 767.976562 410.074219 771.0625 404.867188 C 771.269531 404.519531 771.484375 404.179688 771.667969 403.820312 C 774.085938 399.242188 772.851562 396.289062 767.800781 395.269531 C 762.90625 394.285156 757.9375 393.675781 753.007812 392.84375 C 734.515625 389.738281 721.554688 379.109375 712.707031 362.980469 C 706.308594 351.328125 702.542969 338.828125 700.527344 325.703125 C 698.984375 315.664062 698.75 305.613281 699.695312 295.542969 C 700.660156 285.289062 703.316406 275.402344 706.886719 265.753906 C 707.308594 264.621094 707.6875 263.46875 708.066406 262.320312 C 708.347656 261.476562 708.808594 260.457031 708.078125 259.808594 C 707.140625 258.964844 706.195312 259.941406 705.507812 260.4375 C 702.542969 262.566406 700.054688 265.21875 697.605469 267.914062 C 689.316406 277.007812 684.472656 287.992188 680.519531 299.433594 C 675.902344 312.816406 673.351562 326.660156 671.285156 340.628906 C 669.585938 352.089844 668.515625 363.628906 666.179688 374.996094 C 663.90625 386.042969 658.324219 394.765625 649.261719 401.472656 C 636.585938 410.84375 622.988281 418.210938 607.457031 421.554688 C 602.148438 422.695312 596.808594 423.34375 591.386719 421.964844 C 584.003906 420.082031 579.488281 414.515625 578.828125 406.894531 C 578.117188 398.664062 580.023438 390.859375 582.101562 383.0625 C 585.773438 369.265625 589.753906 355.566406 592.191406 341.472656 C 593.96875 331.207031 595.398438 320.878906 595.277344 310.449219 C 595.171875 301.714844 593.980469 293.105469 591.089844 284.761719 C 586.316406 271.019531 576.914062 262.320312 563.007812 258.347656 C 550.839844 254.871094 538.300781 253.492188 525.84375 251.640625 C 515.144531 250.046875 504.425781 248.574219 493.894531 246.023438 C 482.980469 243.382812 472.886719 239.039062 464.042969 232.078125 C 449.9375 220.988281 434.324219 212.328125 418.730469 203.613281 C 409.769531 198.605469 400.882812 193.449219 393.261719 186.433594 C 392.488281 185.726562 391.757812 184.964844 391.078125 184.171875 C 384.980469 177.125 385.464844 170.582031 392.457031 164.351562 C 397.796875 159.609375 403.730469 155.699219 409.648438 151.75 C 420.953125 144.199219 432.121094 136.472656 441.523438 126.558594 C 450.207031 117.390625 457.746094 107.457031 461.316406 95.050781 C 462.191406 92.003906 462.808594 88.917969 462.507812 85.71875 C 462.128906 81.617188 459.558594 80.105469 455.78125 81.75 C 449.9375 84.289062 445.15625 88.496094 439.847656 91.871094 C 432.203125 96.726562 424.234375 100.6875 415.117188 101.878906 C 407.125 102.917969 399.351562 101.871094 391.65625 99.628906 C 381.203125 96.574219 371.503906 91.757812 361.742188 87.066406 C 347.980469 80.441406 334.214844 73.828125 319.300781 70.074219 C 308.714844 67.410156 297.976562 65.910156 287.050781 65.261719 C 279.277344 64.808594 271.539062 64.878906 263.824219 65.488281 C 250.0625 66.554688 236.523438 69.085938 223.113281 72.410156 C 186.832031 81.390625 154.273438 98.03125 124.238281 119.953125 C 108.960938 131.09375 93.914062 142.542969 80.738281 156.171875 C 43.140625 195.054688 15.859375 240.058594 0.871094 292.210938 C -2.871094 305.242188 -4.828125 318.679688 -7.296875 331.988281 C -10.585938 349.742188 -12.210938 367.664062 -11.933594 385.695312 C -11.605469 406.113281 -9.394531 426.316406 -2.359375 445.683594 C 2.15625 458.113281 8.390625 469.589844 17.976562 478.890625 C 23.800781 484.539062 30.660156 488.054688 39.003906 488.777344 C 46.171875 489.394531 53.34375 488.734375 60.480469 489.464844 C 71.109375 490.554688 80.089844 494.617188 86.433594 503.609375 C 91.710938 511.078125 93.996094 519.5625 94.960938 528.472656 C 96.917969 546.296875 94.324219 563.597656 88.574219 580.46875 C 85.765625 588.71875 81.867188 596.402344 75.707031 602.75 C 67.363281 611.347656 56.480469 612.480469 46.460938 605.90625 C 37.832031 600.238281 31.421875 592.453125 25.785156 584.027344 C 11.46875 562.652344 -0.761719 540.0625 -12.273438 517.074219 C -20.988281 499.667969 -29.554688 482.191406 -36.375 463.933594 C -41.570312 450.027344 -44.667969 435.636719 -46.382812 420.914062 C -48.234375 405.023438 -49.285156 389.097656 -49.242188 373.09375 C -49.210938 358.949219 -48.277344 344.867188 -46.867188 330.804688 C -44.820312 310.398438 -41.640625 290.164062 -37.570312 270.0625 C -35.53125 260.015625 -33.113281 250.035156 -31.191406 239.957031 C -30.089844 234.207031 -29.0625 228.445312 -29.492188 222.425781 C -29.84375 217.5625 -34.308594 215.925781 -38.308594 217.839844 C -45.355469 221.214844 -50.941406 226.511719 -56.289062 232.015625 C -61.011719 236.878906 -65.433594 242.035156 -69.382812 247.566406 C -69.878906 248.257812 -70.371094 248.90625 -71.371094 248.542969 C -71.371094 216.214844 -71.371094 183.882812 -71.371094 151.542969 C -69.324219 150.402344 -68.644531 148.199219 -67.460938 146.421875 C -55.960938 129.109375 -42.496094 113.296875 -29.546875 97.105469 C -19.308594 84.3125 -9.25 71.371094 -0.445312 57.515625 C 2.023438 53.625 4.347656 49.636719 5.386719 45.078125 C 6.40625 40.632812 4.492188 38.03125 -0.0742188 37.660156 C -3.316406 37.40625 -6.523438 37.660156 -9.671875 38.515625 C -31.695312 44.511719 -51.15625 55.3125 -68.480469 70.0625 C -69.324219 70.785156 -70.011719 71.800781 -71.359375 71.515625 C -71.308594 67.367188 -71.308594 63.160156 -71.308594 58.953125 Z M -71.308594 58.953125 "/><path style=" stroke:none;fill-rule:nonzero;fill:#d9d9d9;fill-opacity:1;" d="M -71.308594 458.109375 C -70.527344 458.625 -69.890625 459.203125 -68.707031 458.925781 C -66.484375 458.410156 -64.652344 459.324219 -63.070312 460.960938 C -59.601562 464.5625 -57.238281 468.910156 -54.871094 473.203125 C -39.625 500.789062 -24.90625 528.65625 -10.566406 556.71875 C 2.238281 581.785156 13.441406 607.5625 22.359375 634.289062 C 23.738281 638.421875 25.351562 642.476562 27.625 646.242188 C 32.214844 653.851562 39.199219 657.421875 47.777344 657.742188 C 69.617188 658.5625 86.578125 649.5 98.808594 631.570312 C 106.308594 620.585938 112.613281 608.910156 116.410156 596.105469 C 121.800781 577.917969 128.074219 559.988281 132.496094 541.535156 C 136.109375 526.433594 138.441406 511.117188 139.03125 495.585938 C 139.78125 475.898438 136.644531 456.703125 130.523438 438.09375 C 120.679688 408.210938 112.828125 377.785156 104.867188 347.386719 C 101.9375 336.1875 99.816406 324.808594 100.34375 313.144531 C 101.371094 290.574219 109.117188 270.597656 123.804688 253.378906 C 136.757812 238.207031 153.195312 228.34375 171.8125 221.75 C 181.039062 218.488281 190.574219 216.285156 199.90625 213.375 C 203.0625 212.386719 206.015625 211.082031 208.699219 208.992188 C 212.835938 205.785156 211.425781 200.816406 209.265625 197.769531 C 203.433594 189.519531 195.007812 184.582031 186.160156 180.324219 C 178.035156 176.414062 169.425781 173.761719 160.464844 172.785156 C 151.683594 171.828125 142.898438 172.332031 134.195312 174.144531 C 122.394531 176.601562 111.308594 180.972656 100.515625 186.1875 C 96.742188 188.007812 92.945312 189.796875 89.160156 191.609375 C 87.875 192.226562 86.382812 192.523438 85.222656 191.804688 C 83.84375 190.949219 84.582031 189.449219 84.941406 188.246094 C 86.199219 184.007812 88.59375 180.34375 91.085938 176.765625 C 97.390625 167.691406 104.992188 159.75 113.035156 152.242188 C 129.113281 137.246094 146.539062 124.046875 165.691406 113.207031 C 188.167969 100.492188 212.136719 92.148438 237.808594 88.96875 C 255.175781 86.820312 272.351562 87.644531 289.140625 92.878906 C 305.363281 97.941406 318.753906 107.09375 328.589844 121.148438 C 332.128906 126.207031 332.570312 131.597656 329.566406 135.035156 C 327.652344 137.214844 325.605469 139.300781 323.105469 140.867188 C 320.144531 142.707031 317.417969 144.867188 314.9375 147.304688 C 309.167969 152.953125 308.355469 159.359375 312.40625 166.429688 C 315.863281 172.433594 320.84375 177.023438 326.191406 181.25 C 338.351562 190.847656 351.796875 198.449219 365.117188 206.238281 C 378.230469 213.898438 391.378906 221.511719 403.660156 230.511719 C 411.714844 236.417969 418.882812 243.277344 425.609375 250.632812 C 426.648438 251.765625 427.761719 252.835938 428.726562 254.027344 C 438.878906 266.617188 452.5625 271.855469 468.175781 273.707031 C 484.582031 275.660156 501.113281 276.75 517.367188 279.949219 C 529.207031 282.285156 540.828125 285.296875 551.515625 291.171875 C 564.644531 298.382812 571.90625 309.296875 573.007812 324.367188 C 574.105469 339.445312 571.011719 353.796875 565.765625 367.722656 C 559.675781 383.914062 552.421875 399.621094 545.027344 415.257812 C 543.914062 417.601562 542.609375 419.84375 541.054688 421.902344 C 536.921875 427.394531 532.589844 428.402344 526.101562 426.378906 C 520.484375 424.628906 515.042969 422.261719 509.375 420.710938 C 503.542969 419.117188 497.472656 418.527344 491.414062 418.324219 C 483.832031 418.066406 476.21875 417.984375 468.730469 419.394531 C 463.320312 420.402344 457.808594 421.316406 453.210938 424.753906 C 450.246094 426.964844 449.898438 428.917969 451.78125 432.179688 C 453.867188 435.800781 457.085938 438.359375 460.144531 441.035156 C 465.976562 446.128906 471.476562 451.527344 476.582031 457.351562 C 482.515625 464.128906 488.132812 471.183594 494.425781 477.65625 C 496.496094 479.785156 498.273438 482.234375 499.921875 484.703125 C 502.6875 488.847656 501.238281 492.695312 498.6875 496.367188 C 496.804688 499.070312 494.632812 501.5625 492.996094 504.460938 C 490.519531 508.84375 492.277344 512.21875 495.136719 514.871094 C 498.839844 518.296875 503.386719 520.230469 507.996094 521.886719 C 520.585938 526.433594 533.617188 529.089844 546.859375 530.949219 C 565.476562 533.574219 584.1875 534.078125 602.941406 534.136719 C 622.484375 534.191406 641.246094 530.292969 659.578125 523.605469 C 682.8125 515.117188 704.734375 503.9375 726.347656 492.035156 C 737.660156 485.800781 749.078125 479.703125 761.402344 475.566406 C 766.824219 473.757812 772.007812 473.984375 775.761719 478.746094 C 785.773438 491.460938 799.378906 499.410156 812.957031 507.425781 C 827.988281 516.292969 841.628906 527.019531 854.9375 538.210938 C 859.515625 542.058594 864.082031 545.925781 868.804688 549.589844 C 873.03125 552.871094 877.539062 555.8125 883.121094 556.121094 C 885.035156 556.234375 886.992188 555.925781 888.914062 555.742188 C 890.972656 555.542969 892.492188 556.183594 893.492188 558.117188 C 896.515625 563.929688 898.59375 570.121094 898.738281 576.601562 C 899.054688 590.816406 898.789062 605.054688 898.882812 619.28125 C 898.902344 621.675781 898.191406 622.664062 895.722656 622.550781 C 882.167969 621.933594 873.988281 617.078125 869.011719 605.042969 C 865.945312 597.625 864.15625 589.796875 861.859375 582.144531 C 856.203125 563.199219 844.992188 547.933594 830.703125 534.703125 C 813.957031 519.214844 793.785156 511.21875 771.453125 508.289062 C 758.5625 506.601562 746.023438 508.886719 733.648438 512.414062 C 713.714844 518.101562 694.652344 526.199219 675.378906 533.6875 C 661.285156 539.160156 647.253906 544.691406 632.625 548.671875 C 616.640625 553.035156 600.460938 553.765625 584.085938 552.5625 C 575.710938 551.953125 567.316406 551.449219 558.945312 550.875 C 543.226562 549.792969 527.582031 547.972656 511.976562 545.84375 C 497.089844 543.808594 482.21875 541.6875 467.34375 539.601562 C 448.867188 537.007812 430.382812 534.488281 411.917969 531.8125 C 404.007812 530.671875 396.121094 529.253906 388.558594 526.578125 C 383.324219 524.726562 378.292969 522.433594 374.746094 517.773438 C 371.628906 513.6875 371.132812 508.96875 371.195312 504.144531 C 371.226562 501.046875 370.949219 498.003906 370.433594 494.976562 C 369.890625 491.777344 365.269531 489.054688 361.484375 488.910156 C 352.320312 488.570312 343.863281 491.605469 335.316406 494.144531 C 325.957031 496.933594 316.699219 500.050781 307.316406 502.746094 C 304.355469 503.597656 301.226562 504.144531 298.046875 504.144531 C 292.699219 504.144531 289.644531 500.976562 289.550781 495.226562 C 289.460938 489.175781 290.898438 483.414062 292.535156 477.664062 C 294.003906 472.460938 295.753906 467.367188 297.996094 462.429688 C 300.660156 456.546875 303.664062 450.890625 307.070312 445.386719 C 308.816406 442.566406 310.691406 439.832031 312.6875 437.238281 C 315.667969 433.339844 319.226562 429.957031 323.457031 427.304688 C 331.5 422.261719 340.5625 420.492188 349.675781 418.671875 C 359.902344 416.625 369.917969 413.785156 379.703125 410.125 C 389.988281 406.265625 400.203125 402.195312 410.738281 398.996094 C 424.203125 394.902344 437.976562 392.546875 452.035156 392.71875 C 473.359375 392.976562 494.683594 393.542969 516.007812 394.203125 C 520.710938 394.34375 525.359375 394.355469 530.019531 393.769531 C 536.261719 392.976562 541.3125 389.953125 545.222656 385.140625 C 556.25 371.570312 563.152344 356.171875 564.746094 338.695312 C 565.785156 327.308594 564.199219 316.40625 556.609375 307.136719 C 551.507812 300.914062 544.933594 296.746094 537.683594 293.546875 C 526.574219 288.640625 514.785156 286.304688 502.84375 284.628906 C 487.019531 282.40625 471.046875 281.667969 455.226562 279.402344 C 442.554688 277.59375 431.761719 272.304688 423.894531 262.289062 C 406.910156 240.644531 384.867188 225.523438 361.257812 212.234375 C 345.203125 203.191406 329.195312 194.046875 314.175781 183.328125 C 305.785156 177.339844 297.875 170.820312 292.554688 161.738281 C 287.761719 153.550781 286.785156 144.960938 289.480469 135.824219 C 290.558594 132.164062 291.804688 128.554688 291.660156 124.511719 C 291.445312 118.132812 287.988281 113.90625 283.308594 110.53125 C 275.078125 104.59375 265.523438 102.074219 255.585938 101.261719 C 226.691406 98.886719 200.347656 106.40625 176.421875 122.515625 C 171.6875 125.703125 167.246094 129.355469 164.425781 134.589844 C 162.410156 138.324219 163.746094 141.679688 166.96875 144.054688 C 169.847656 146.183594 173.089844 147.707031 176.339844 149.0625 C 192.929688 156.007812 208.875 164.164062 223.925781 174.03125 C 230.28125 178.195312 236.238281 182.9375 242.203125 187.628906 C 251.101562 194.632812 260.472656 200.960938 269.75 207.441406 C 275.972656 211.789062 282.074219 216.308594 287.390625 221.800781 C 290.105469 224.609375 292.402344 227.695312 294.707031 230.8125 C 296.21875 232.835938 296.730469 235.214844 297.203125 237.558594 C 297.832031 240.6875 295.464844 243.503906 292.378906 244.296875 C 283.152344 246.664062 273.90625 245.058594 264.667969 244.605469 C 257.652344 244.265625 250.648438 243.667969 243.632812 243.359375 C 232.007812 242.835938 220.4375 241.683594 208.855469 240.6875 C 192.488281 239.285156 176.175781 238.886719 160.601562 245.34375 C 134.574219 256.144531 119.257812 275.660156 114.785156 303.390625 C 112.664062 316.539062 114.15625 329.675781 116.976562 342.636719 C 121.871094 365.214844 126.160156 387.925781 132.539062 410.164062 C 136.128906 422.664062 140.625 434.90625 143.371094 447.640625 C 145.457031 457.289062 146.773438 467.019531 147.167969 476.90625 C 148.175781 502.40625 143.296875 527.039062 136.210938 551.285156 C 130.914062 569.402344 125.171875 587.414062 118.980469 605.238281 C 114.371094 618.476562 107.460938 630.699219 99.136719 642.011719 C 88.738281 656.148438 74.367188 663.851562 57.4375 667.277344 C 50.503906 668.6875 43.53125 669.425781 36.492188 668.265625 C 21.824219 665.828125 13.421875 657.554688 10.613281 642.917969 C 7.722656 627.867188 3.699219 613.191406 -3.292969 599.449219 C -7.863281 590.46875 -13.785156 582.433594 -20.09375 574.648438 C -25.339844 568.167969 -29.832031 561.191406 -34.226562 554.125 C -45.726562 535.597656 -56.21875 516.425781 -69.21875 498.84375 C -69.796875 498.074219 -70.25 497.179688 -71.296875 496.921875 C -71.308594 483.972656 -71.308594 471.042969 -71.308594 458.109375 Z M -71.308594 458.109375 "/><path style=" stroke:none;fill-rule:nonzero;fill:#d9d9d9;fill-opacity:1;" d="M -71.308594 521.640625 C -70.21875 522.164062 -69.703125 523.195312 -69.148438 524.179688 C -59.625 541.09375 -52.402344 558.960938 -47.09375 577.621094 C -43.710938 589.511719 -40.644531 601.484375 -37.054688 613.3125 C -33.125 626.234375 -28.566406 638.949219 -21.789062 650.714844 C -17.40625 658.316406 -11.296875 664.4375 -4.382812 669.726562 C 3.609375 675.84375 12.136719 681.070312 21.640625 684.546875 C 31.648438 688.210938 41.75 688.425781 51.800781 684.90625 C 62.332031 681.214844 72.527344 676.679688 82.226562 671.125 C 94.953125 663.839844 103.839844 652.988281 110.988281 640.367188 C 121.441406 621.914062 128.949219 602.316406 135.171875 582.113281 C 138.710938 570.625 143.214844 559.441406 146.929688 548.003906 C 152.894531 529.621094 157.265625 510.828125 159.746094 491.65625 C 162.535156 470.117188 162.113281 448.648438 157.328125 427.335938 C 151.742188 402.492188 147.289062 377.445312 143.296875 352.304688 C 141.652344 341.925781 140.265625 331.484375 140.304688 320.972656 C 140.355469 307.589844 142.558594 294.667969 151.710938 284.03125 C 159.664062 274.785156 169.777344 269.859375 181.976562 269.324219 C 194.523438 268.769531 206.273438 272.214844 217.792969 276.699219 C 225.332031 279.628906 232.535156 283.332031 239.796875 286.863281 C 247.726562 290.707031 255.699219 291.996094 264.175781 289.105469 C 277.394531 284.597656 290.261719 286.441406 303.039062 291.140625 C 314.496094 295.359375 325.605469 300.410156 336.929688 304.945312 C 344.070312 307.804688 351.300781 310.429688 358.976562 311.375 C 365.589844 312.1875 371.875 311.621094 377.019531 306.558594 C 379.085938 304.535156 380.195312 301.984375 380.9375 299.441406 C 382.644531 293.539062 382.859375 287.355469 383.386719 281.246094 C 383.601562 278.683594 383.992188 276.246094 385.207031 273.871094 C 386.367188 271.597656 387.972656 271.421875 389.96875 272.050781 C 394.496094 273.457031 397.859375 276.667969 401.324219 279.660156 C 407.621094 285.101562 413.824219 290.617188 421.578125 294.042969 C 427.824219 296.796875 434.355469 297.980469 441.070312 298.496094 C 450.824219 299.238281 460.617188 298.84375 470.378906 299.453125 C 484.335938 300.316406 498.324219 301.089844 511.617188 306.035156 C 518.167969 308.472656 523.949219 312.03125 527.734375 318.234375 C 531.695312 324.726562 530.757812 332.144531 525.359375 337.492188 C 519.898438 342.902344 512.933594 344.773438 505.722656 346.058594 C 499.167969 347.222656 492.523438 347.253906 485.898438 347.015625 C 464.710938 346.277344 444.21875 349.816406 424.203125 356.574219 C 417.390625 358.878906 410.480469 360.871094 403.566406 362.867188 C 387.097656 367.632812 370.824219 366.933594 354.695312 361.40625 C 348.730469 359.371094 342.792969 357.242188 336.859375 355.144531 C 331.878906 353.394531 326.777344 352.273438 321.53125 351.699219 C 311.933594 350.648438 304.273438 354.054688 298.347656 361.519531 C 292.574219 368.792969 289.089844 377.28125 286.3125 385.980469 C 278.257812 411.214844 270.089844 436.425781 263.085938 461.988281 C 260.070312 473.007812 255.503906 483.457031 251.800781 494.214844 C 244.238281 516.210938 237.246094 538.375 233.542969 561.417969 C 231.339844 575.121094 229.632812 588.863281 228.964844 602.75 C 228.316406 616.082031 228.398438 629.402344 229.117188 642.710938 C 229.375 647.464844 230.066406 652.1875 230.28125 656.9375 C 230.796875 668.046875 229.191406 678.582031 221.125 687.109375 C 217.339844 691.109375 212.679688 693.847656 207.804688 696.234375 C 204.535156 697.828125 201.199219 699.296875 198.199219 701.375 C 193.960938 704.296875 193.207031 708.433594 196.089844 712.703125 C 197.898438 715.375 200.429688 717.238281 203.113281 718.914062 C 204.132812 719.550781 205.109375 720.273438 206.109375 720.960938 C 193.660156 720.960938 181.214844 720.960938 168.769531 720.960938 C 168.316406 720.199219 167.933594 719.386719 167.398438 718.6875 C 159.902344 708.90625 156.621094 697.921875 157.90625 685.628906 C 158.933594 675.792969 163.5 667.925781 171.113281 661.722656 C 176.316406 657.472656 182.324219 654.675781 188.457031 652.164062 C 196.695312 648.78125 201.375 642.609375 203.578125 634.183594 C 207.0625 620.855469 208.585938 607.222656 209.75 593.5625 C 210.859375 580.539062 212.226562 567.550781 214.328125 554.660156 C 218.070312 531.640625 223.183594 508.875 227.65625 485.988281 C 230.136719 473.292969 232.761719 460.640625 233.171875 447.679688 C 233.492188 437.578125 233.449219 427.488281 232.246094 417.429688 C 231.320312 409.609375 229.859375 401.925781 226.835938 394.632812 C 225.457031 391.3125 223.832031 388 220.867188 385.664062 C 217.515625 383.019531 213.976562 383.492188 211.4375 386.949219 C 208.042969 391.578125 206.960938 397.082031 205.738281 402.503906 C 202.949219 414.792969 201.417969 427.324219 199.039062 439.6875 C 195.894531 456.136719 191.316406 472.222656 186.625 488.269531 C 179.785156 511.703125 172.140625 534.859375 162.625 557.367188 C 157 570.675781 150.53125 583.648438 145.449219 597.175781 C 137.621094 617.992188 128.351562 638.144531 118.558594 658.089844 C 113.015625 669.375 104.941406 678.191406 94.253906 684.753906 C 85.992188 689.824219 77.433594 694.390625 69.308594 699.699219 C 58.363281 706.847656 46.339844 712.3125 36.351562 720.941406 C 21.3125 720.941406 6.28125 720.941406 -8.757812 720.941406 C -11.8125 716.375 -14.300781 711.46875 -17.027344 706.703125 C -23.15625 695.957031 -31.613281 686.996094 -39.429688 677.542969 C -52.226562 662.070312 -63.273438 645.5625 -69.808594 626.367188 C -70.125 625.441406 -70.515625 624.558594 -71.328125 623.949219 C -71.308594 589.859375 -71.308594 555.75 -71.308594 521.640625 Z M -71.308594 521.640625 "/><path style=" stroke:none;fill-rule:nonzero;fill:#d9d9d9;fill-opacity:1;" d="M -71.308594 -95.269531 C -61.660156 -94.550781 -53.59375 -98.828125 -45.644531 -103.449219 C -32.570312 -111.03125 -19.898438 -119.28125 -6.6875 -126.632812 C 5.964844 -133.679688 18.75 -140.4375 32.863281 -144.140625 C 39.828125 -145.972656 46.871094 -147.074219 54.1875 -146.445312 C 67.023438 -145.34375 75.859375 -138.988281 81.136719 -127.324219 C 83.472656 -122.167969 85.332031 -116.839844 87.648438 -111.675781 C 91.535156 -103.015625 98.492188 -99.273438 107.460938 -98.304688 C 119.371094 -97.019531 131.140625 -98.5625 142.917969 -100.035156 C 152.597656 -101.238281 162.265625 -102.480469 171.945312 -103.707031 C 185.699219 -105.445312 199.484375 -106.882812 213.207031 -108.828125 C 226.949219 -110.773438 240.628906 -113.046875 254.125 -116.296875 C 258.445312 -117.335938 262.734375 -118.488281 266.777344 -120.421875 C 267.507812 -120.769531 268.339844 -120.996094 268.238281 -122.066406 C 268.136719 -123.09375 267.34375 -123.3125 266.550781 -123.539062 C 264.039062 -124.246094 261.460938 -124.441406 258.878906 -124.566406 C 250.011719 -124.988281 241.132812 -125.253906 232.253906 -125.699219 C 216.457031 -126.480469 200.625 -127.21875 185.390625 -132.042969 C 178.386719 -134.257812 171.761719 -137.320312 167.222656 -143.464844 C 162.667969 -149.644531 162.070312 -156.382812 165.074219 -163.410156 C 165.546875 -164.53125 165.960938 -166.050781 167.511719 -166.113281 C 169.117188 -166.1875 169.230469 -164.601562 169.691406 -163.5625 C 173.984375 -153.871094 181.839844 -148.761719 191.808594 -146.476562 C 202.703125 -143.976562 213.605469 -144.121094 224.4375 -146.878906 C 225.992188 -147.269531 228.46875 -147.476562 228.335938 -149.429688 C 228.203125 -151.414062 225.722656 -151.125 224.160156 -151.269531 C 217.886719 -151.816406 211.558594 -151.589844 205.304688 -152.464844 C 198.371094 -153.429688 191.53125 -154.859375 186.070312 -159.675781 C 179.207031 -165.722656 177.941406 -172.890625 182.097656 -181.082031 C 185.402344 -187.59375 190.234375 -192.921875 195.460938 -197.878906 C 212.617188 -214.152344 232.832031 -224.960938 255.75 -230.414062 C 277.835938 -235.660156 299.507812 -234.230469 320.277344 -224.417969 C 326.140625 -221.640625 331.324219 -217.710938 336.839844 -214.355469 C 350.671875 -205.964844 365.90625 -201.191406 381.460938 -197.34375 C 396.40625 -193.652344 411.640625 -191.46875 426.824219 -189 C 436.453125 -187.4375 446.113281 -186.121094 455.8125 -185.296875 C 466.582031 -184.382812 477.382812 -183.332031 488.214844 -183.777344 C 495.433594 -184.0625 502.574219 -185 508.550781 -189.761719 C 510.617188 -191.40625 512.097656 -193.515625 513.53125 -195.667969 C 516.707031 -200.441406 519.867188 -205.234375 523.097656 -209.964844 C 529.8125 -219.800781 539.503906 -225.796875 549.71875 -231.21875 C 559.570312 -236.441406 569.753906 -240.988281 579.796875 -245.832031 C 580.226562 -246.039062 580.773438 -246.152344 581.089844 -246.472656 C 584.320312 -249.703125 588.394531 -249.25 592.417969 -249.207031 C 598.722656 -249.144531 605.027344 -249.207031 611.332031 -249.175781 C 612.15625 -249.175781 613.09375 -249.507812 613.925781 -248.671875 C 612.722656 -247.097656 610.902344 -246.871094 609.246094 -246.449219 C 597.550781 -243.519531 586.246094 -239.464844 575.277344 -234.46875 C 567.78125 -231.050781 560.527344 -227.195312 553.605469 -222.679688 C 545.5 -217.390625 540.078125 -210.109375 536.488281 -201.273438 C 535.027344 -197.683594 533.308594 -194.195312 531.871094 -190.605469 C 528.382812 -181.945312 521.707031 -177.582031 512.777344 -176.101562 C 504.355469 -174.703125 495.917969 -175.011719 487.441406 -175.566406 C 476.980469 -176.246094 466.632812 -177.820312 456.253906 -179.136719 C 444.351562 -180.636719 432.542969 -182.738281 420.746094 -184.898438 C 407.847656 -187.261719 394.925781 -189.527344 382.058594 -192.097656 C 358.050781 -196.890625 334.585938 -203.585938 311.71875 -212.363281 C 303.878906 -215.367188 296.023438 -218.328125 287.8125 -220.261719 C 270.523438 -224.34375 253.96875 -221.96875 237.964844 -214.707031 C 228.378906 -210.355469 219.664062 -204.71875 212.421875 -197.023438 C 209.429688 -193.847656 206.632812 -190.472656 205.296875 -186.171875 C 203.949219 -181.839844 205.324219 -178.734375 209.367188 -176.8125 C 212.433594 -175.351562 215.714844 -174.867188 219.039062 -174.898438 C 227.359375 -174.992188 235.679688 -175.484375 243.992188 -175.351562 C 256.273438 -175.164062 268.300781 -173.230469 279.726562 -168.511719 C 283.84375 -166.8125 287.792969 -164.777344 290.570312 -161.042969 C 292.347656 -158.644531 292.566406 -156.1875 291.28125 -153.542969 C 289.449219 -149.800781 286.085938 -147.660156 282.78125 -145.46875 C 280.765625 -144.132812 278.679688 -142.898438 276.640625 -141.589844 C 275.964844 -141.148438 275.273438 -140.664062 275.542969 -139.65625 C 275.777344 -138.75 276.570312 -138.742188 277.257812 -138.578125 C 278.914062 -138.1875 280.613281 -138.082031 282.308594 -138.042969 C 295.085938 -137.765625 307.832031 -138.597656 320.585938 -138.96875 C 325.914062 -139.121094 331.253906 -138.917969 336.476562 -137.683594 C 337.261719 -137.496094 338.03125 -137.25 338.78125 -136.953125 C 340.304688 -136.34375 342.011719 -135.644531 342.15625 -133.835938 C 342.300781 -131.992188 340.890625 -130.757812 339.421875 -129.8125 C 335.242188 -127.105469 330.59375 -125.441406 325.882812 -123.96875 C 309.917969 -119 293.554688 -115.75 277.167969 -112.550781 C 265.707031 -110.308594 254.21875 -108.292969 242.6875 -106.523438 C 234.015625 -105.195312 225.324219 -104.046875 216.628906 -102.882812 C 208.175781 -101.75 199.71875 -100.628906 191.253906 -99.632812 C 182.542969 -98.601562 173.847656 -97.453125 165.167969 -96.164062 C 155.363281 -94.714844 145.644531 -92.863281 135.902344 -91.125 C 123.054688 -88.832031 110.207031 -86.621094 97.203125 -85.34375 C 88.492188 -84.492188 79.820312 -83.863281 71.160156 -85.550781 C 65.449219 -86.660156 60.8125 -89.40625 58.867188 -95.25 C 57.898438 -98.152344 57.375 -101.195312 56.726562 -104.1875 C 55.832031 -108.324219 54.609375 -112.347656 52.242188 -115.886719 C 47.828125 -122.46875 41.101562 -124.390625 33.707031 -124.453125 C 22.410156 -124.546875 11.949219 -120.964844 1.683594 -116.699219 C -13.816406 -110.238281 -28.074219 -101.492188 -42.363281 -92.792969 C -44.976562 -91.195312 -47.628906 -89.683594 -50.035156 -87.730469 C -45.429688 -90.4375 -40.808594 -93.132812 -36.210938 -95.847656 C -21.863281 -104.300781 -7.378906 -112.5 8.605469 -117.570312 C 15.191406 -119.660156 21.875 -121.007812 28.859375 -120.648438 C 38.570312 -120.144531 44.816406 -114.15625 45.402344 -104.425781 C 45.648438 -100.402344 45.515625 -96.351562 45.554688 -92.308594 C 45.636719 -84.695312 49.0625 -80.808594 56.613281 -79.367188 C 63.621094 -78.03125 70.632812 -78.484375 77.617188 -79.078125 C 87.976562 -79.953125 98.273438 -81.382812 108.507812 -83.265625 C 121.183594 -85.613281 133.84375 -87.945312 146.507812 -90.324219 C 158.214844 -92.523438 169.949219 -94.53125 181.78125 -95.960938 C 194.238281 -97.472656 206.671875 -99.191406 219.140625 -100.671875 C 235.042969 -102.5625 250.882812 -104.910156 266.675781 -107.554688 C 295.601562 -112.398438 324.433594 -117.652344 352.855469 -125.007812 C 357.78125 -126.285156 362.636719 -127.835938 367.152344 -130.253906 C 368.726562 -131.097656 370.207031 -132.054688 371.566406 -133.226562 C 374.765625 -135.964844 375.660156 -139.347656 374.292969 -143.265625 C 373.285156 -146.15625 371.96875 -148.945312 371.019531 -151.855469 C 369.859375 -155.445312 371.183594 -158.386719 374.382812 -160.261719 C 377.222656 -161.917969 379.96875 -163.726562 382.820312 -165.363281 C 384.21875 -166.175781 384.15625 -166.894531 383.179688 -168.007812 C 379.960938 -171.699219 375.433594 -173.210938 371.152344 -175.023438 C 364.167969 -177.984375 357.042969 -180.617188 349.996094 -183.457031 C 348.542969 -184.042969 346.917969 -184.464844 345.890625 -186.183594 C 349.820312 -187.109375 353.5625 -186.492188 357.257812 -185.964844 C 380.636719 -182.632812 403.917969 -178.796875 426.957031 -173.5625 C 452.449219 -167.757812 477.054688 -159.480469 500.878906 -148.707031 C 514.332031 -142.628906 527.621094 -136.167969 541.292969 -130.554688 C 554.273438 -125.214844 567.78125 -121.921875 581.6875 -120.070312 C 594.207031 -118.40625 606.476562 -119.0625 618.484375 -123.136719 C 623.574219 -124.863281 628.328125 -127.230469 632.277344 -130.996094 C 633.234375 -131.902344 633.996094 -132.917969 634.570312 -134.09375 C 635.917969 -136.839844 635.09375 -139.03125 632.214844 -140.089844 C 629.777344 -140.984375 627.214844 -141.386719 624.65625 -141.714844 C 607.28125 -143.925781 590.378906 -147.988281 574.117188 -154.582031 C 572.480469 -155.25 570.9375 -156.167969 569.375 -157.011719 C 563.914062 -159.972656 561.535156 -164.46875 561.824219 -170.753906 C 562.152344 -177.921875 562.359375 -185.082031 563.316406 -192.222656 C 564.714844 -202.640625 569.722656 -210.707031 578.363281 -216.539062 C 591.183594 -225.199219 605.347656 -230.125 620.714844 -231.742188 C 637.347656 -233.488281 653.300781 -230.445312 668.949219 -225.148438 C 680.285156 -221.3125 691.03125 -216.054688 702.050781 -211.457031 C 710.269531 -208.03125 718.621094 -204.851562 727.652344 -204.71875 C 734.339844 -204.617188 741.023438 -205.292969 747.671875 -206.210938 C 755.582031 -207.300781 763.523438 -208.351562 771.523438 -208.296875 C 784.074219 -208.214844 796.53125 -207.464844 808.1875 -201.910156 C 817.445312 -197.488281 825.828125 -191.789062 833.738281 -185.320312 C 838.488281 -181.429688 843.035156 -177.285156 848.097656 -173.777344 C 850.308594 -172.246094 852.695312 -170.464844 855.433594 -171.875 C 858.117188 -173.253906 857.960938 -176.226562 857.878906 -178.796875 C 857.652344 -186.273438 855.679688 -193.476562 854.21875 -200.757812 C 852.714844 -208.226562 851.367188 -215.703125 852.601562 -223.359375 C 853.683594 -229.992188 855.710938 -236.402344 857.601562 -242.832031 C 859.78125 -250.238281 858.507812 -249.105469 866.242188 -249.167969 C 871.984375 -249.21875 877.722656 -249.144531 883.460938 -249.199219 C 885.128906 -249.21875 885.910156 -249.105469 885.480469 -246.945312 C 883.75 -238.386719 882.394531 -229.757812 882.824219 -220.972656 C 883.429688 -208.628906 884.253906 -196.304688 885.4375 -184 C 887.074219 -167.101562 888.339844 -150.179688 885.242188 -133.289062 C 884.296875 -128.105469 883.050781 -122.984375 880.128906 -118.496094 C 875.242188 -111 868.167969 -110.125 861.511719 -116.101562 C 857.160156 -120.007812 854.226562 -124.917969 851.5625 -130.019531 C 850.824219 -131.4375 850.074219 -132.847656 848.921875 -134.164062 C 849.261719 -131.027344 849.671875 -127.898438 849.9375 -124.761719 C 851.121094 -110.667969 853.363281 -96.722656 855.390625 -82.742188 C 856.636719 -74.171875 853.753906 -66.335938 849.878906 -58.804688 C 846.792969 -52.816406 844.1875 -46.71875 844.300781 -39.722656 C 844.558594 -24.046875 855.761719 -10.375 871.148438 -7.15625 C 879.726562 -5.355469 887.8125 -6.960938 895.640625 -10.480469 C 898.707031 -11.859375 898.832031 -11.773438 898.851562 -8.421875 C 898.851562 -8.339844 898.851562 -8.257812 898.851562 -8.175781 C 898.871094 -1.457031 898.871094 -1.457031 892.433594 0.90625 C 869.585938 9.3125 847.070312 0.679688 834.796875 -21.042969 C 829.015625 -31.277344 826.371094 -42.335938 825.992188 -53.941406 C 825.765625 -60.894531 826.730469 -67.828125 828.574219 -74.554688 C 831.09375 -83.738281 832.0625 -93.109375 832.359375 -102.574219 C 832.648438 -111.707031 833.921875 -120.75 834.808594 -129.824219 C 836.742188 -149.726562 830.855469 -166.917969 817.300781 -181.605469 C 809.492188 -190.0625 799.996094 -195.265625 788.714844 -197.210938 C 778.726562 -198.925781 768.941406 -197.640625 759.304688 -194.78125 C 752.484375 -192.753906 745.828125 -190.226562 739.265625 -187.519531 C 731.59375 -184.363281 724.308594 -185.183594 717.027344 -188.621094 C 709.332031 -192.25 702.234375 -196.910156 694.933594 -201.222656 C 681.578125 -209.101562 667.734375 -215.789062 652.316406 -218.535156 C 637.335938 -221.207031 622.453125 -221.679688 608 -215.757812 C 602.652344 -213.566406 597.613281 -210.808594 593.804688 -206.3125 C 585.957031 -197.054688 588.765625 -184.875 599.863281 -179.824219 C 611.507812 -174.527344 622.453125 -175.339844 632.542969 -183.582031 C 635.238281 -185.78125 638.015625 -187.878906 641.039062 -189.609375 C 652.429688 -196.089844 666.765625 -194.71875 677.835938 -186.132812 C 683.863281 -181.449219 688.164062 -175.699219 689.007812 -167.851562 C 689.460938 -163.582031 688.246094 -159.707031 686.105469 -156.0625 C 683.875 -152.269531 680.878906 -149.089844 677.875 -145.921875 C 668.382812 -135.882812 658.773438 -125.957031 647.101562 -118.34375 C 633.921875 -109.765625 619.296875 -104.910156 604.121094 -101.382812 C 591.613281 -98.480469 578.871094 -97 566.195312 -95.097656 C 558.953125 -94.015625 552.824219 -90.828125 549.070312 -84.4375 C 540.769531 -70.304688 527.941406 -63.371094 512.398438 -60.429688 C 487.144531 -55.648438 462.4375 -57.507812 438.324219 -66.5 C 431.660156 -68.976562 426.054688 -72.980469 422.011719 -78.945312 C 417.835938 -85.109375 411.558594 -87.90625 404.6875 -89.652344 C 396.828125 -91.648438 388.804688 -92.378906 380.722656 -92.65625 C 357.464844 -93.46875 334.742188 -89.765625 312.152344 -84.738281 C 296.308594 -81.210938 280.285156 -78.769531 264.132812 -77.074219 C 247.757812 -75.347656 231.351562 -74.089844 214.945312 -72.710938 C 198.382812 -71.324219 181.8125 -70.007812 165.332031 -67.816406 C 146.621094 -65.328125 128.035156 -62.066406 109.519531 -58.320312 C 83.511719 -53.066406 57.5 -47.789062 31.710938 -41.554688 C 4.472656 -34.972656 -21.664062 -25.179688 -47.03125 -13.277344 C -54.921875 -9.574219 -62.90625 -6.035156 -71.308594 -3.578125 C -71.308594 -7.136719 -71.308594 -10.695312 -71.308594 -14.242188 C -64.3125 -15.652344 -57.546875 -17.863281 -50.992188 -20.613281 C -24.78125 -31.609375 2.148438 -40.402344 29.898438 -46.429688 C 68.730469 -54.867188 107.335938 -64.378906 146.507812 -71.273438 C 159.457031 -73.546875 172.449219 -75.488281 185.515625 -76.890625 C 196.738281 -78.09375 208.019531 -78.800781 219.253906 -79.945312 C 234.980469 -81.546875 250.742188 -82.78125 266.449219 -84.625 C 284.410156 -86.722656 302.226562 -89.644531 320.019531 -92.8125 C 338.640625 -96.136719 357.378906 -98.242188 376.316406 -98.296875 C 382.542969 -98.304688 388.746094 -98.304688 394.96875 -97.894531 C 404.75 -97.246094 414.398438 -96.011719 423.84375 -93.367188 C 432.730469 -90.878906 440.332031 -86.476562 445.8125 -78.792969 C 448.898438 -74.460938 453.085938 -71.417969 458.097656 -69.679688 C 476.726562 -63.226562 495.375 -63.28125 513.828125 -70.253906 C 524.175781 -74.164062 530.625 -81.691406 532.929688 -92.648438 C 533.421875 -95.011719 534.125 -97.347656 534.832031 -99.664062 C 535.851562 -102.996094 538.1875 -104.878906 541.570312 -105.558594 C 544.699219 -106.183594 547.835938 -106.039062 550.984375 -105.761719 C 558.945312 -105.054688 566.886719 -104.117188 574.867188 -103.714844 C 583.992188 -103.253906 593.066406 -104.148438 602.105469 -105.535156 C 628.183594 -109.539062 650.351562 -120.429688 666.738281 -141.714844 C 670.636719 -146.773438 674.59375 -151.804688 677.136719 -157.730469 C 679.699219 -163.71875 680.171875 -169.722656 675.808594 -175.125 C 671.386719 -180.597656 665.449219 -182.261719 658.628906 -181.089844 C 655.226562 -180.503906 652.171875 -179.035156 649.28125 -177.210938 C 646.894531 -175.699219 644.488281 -174.1875 642.253906 -172.460938 C 629.765625 -162.761719 615.820312 -160.28125 600.59375 -163.800781 C 594.421875 -165.21875 588.230469 -166.71875 583.375 -171.09375 C 575.679688 -178.027344 574.488281 -187.109375 575.835938 -196.683594 C 576.945312 -204.585938 581.945312 -210.066406 588.292969 -214.398438 C 599.636719 -222.144531 612.332031 -225.929688 625.929688 -227.03125 C 623.625 -226.917969 621.332031 -226.917969 619.007812 -226.609375 C 607.300781 -225.054688 596.4375 -221.269531 586.503906 -214.902344 C 579.066406 -210.140625 573.726562 -203.8125 572.152344 -194.84375 C 571.175781 -189.300781 571.339844 -183.796875 572.253906 -178.230469 C 573.59375 -170.144531 577.75 -164.28125 585.296875 -161.144531 C 602.96875 -153.8125 621.023438 -150.671875 639.835938 -156.671875 C 644.199219 -158.058594 648.570312 -159.652344 653.292969 -159.4375 C 657.59375 -159.242188 659.925781 -156.535156 659.402344 -152.257812 C 659.09375 -149.746094 658.292969 -147.382812 657.171875 -145.117188 C 651.328125 -133.363281 641.832031 -125.492188 630.066406 -120.246094 C 615.109375 -113.582031 599.371094 -111.925781 583.191406 -113.476562 C 568.222656 -114.90625 553.761719 -118.375 540.039062 -124.535156 C 528.476562 -129.71875 517.089844 -135.304688 505.546875 -140.53125 C 491.785156 -146.753906 477.867188 -152.609375 463.320312 -156.773438 C 460.605469 -157.554688 457.847656 -158.214844 455.011719 -158.386719 C 454.175781 -158.441406 453.332031 -158.378906 452.839844 -157.617188 C 452.316406 -156.785156 452.859375 -156.0625 453.332031 -155.414062 C 453.753906 -154.828125 454.25 -154.285156 454.761719 -153.78125 C 457.46875 -151.117188 460.203125 -148.484375 462.898438 -145.808594 C 467.898438 -140.839844 472.703125 -135.695312 475.714844 -129.214844 C 476.601562 -127.3125 477.414062 -125.121094 475.996094 -123.21875 C 474.605469 -121.347656 472.34375 -121.398438 470.203125 -121.5625 C 469.882812 -121.59375 469.566406 -121.664062 469.246094 -121.71875 C 460.453125 -123.167969 452.058594 -126.179688 443.40625 -128.199219 C 432.378906 -130.757812 421.382812 -131.519531 410.316406 -128.671875 C 404.605469 -127.199219 398.929688 -125.617188 393.1875 -124.246094 C 380.464844 -121.222656 367.535156 -119.332031 354.625 -117.304688 C 338.226562 -114.734375 321.871094 -111.925781 305.527344 -109.085938 C 280.304688 -104.703125 255.03125 -100.621094 229.621094 -97.480469 C 215.808594 -95.773438 202.015625 -93.890625 188.1875 -92.265625 C 174.664062 -90.683594 161.257812 -88.417969 147.917969 -85.753906 C 116.964844 -79.59375 86.230469 -72.21875 54.855469 -68.320312 C 45.546875 -67.15625 36.214844 -66.519531 26.875 -68.03125 C 20.4375 -69.070312 15.109375 -71.734375 13.050781 -78.515625 C 12.238281 -81.210938 11.753906 -84.007812 11.148438 -86.773438 C 9.871094 -92.566406 6.34375 -95.476562 0.449219 -95.773438 C -4.664062 -96.042969 -9.488281 -94.859375 -14.25 -93.234375 C -24.710938 -89.65625 -34.214844 -84.121094 -43.894531 -78.925781 C -52.648438 -74.222656 -61.269531 -69.195312 -71.308594 -67.632812 C -71.308594 -76.835938 -71.308594 -86.054688 -71.308594 -95.269531 Z M -71.308594 -95.269531 "/><path style=" stroke:none;fill-rule:nonzero;fill:#d9d9d9;fill-opacity:1;" d="M -71.308594 -1.179688 C -65.558594 -2.363281 -60.34375 -5.015625 -55.015625 -7.300781 C -39.882812 -13.800781 -25.0625 -21.011719 -9.558594 -26.671875 C 12.546875 -34.746094 35.144531 -40.886719 58.3125 -45.0625 C 73.78125 -47.851562 89.171875 -51.109375 104.652344 -53.898438 C 122.273438 -57.078125 139.933594 -59.988281 157.742188 -61.992188 C 169.601562 -63.332031 181.480469 -64.492188 193.382812 -65.429688 C 209.390625 -66.683594 225.414062 -67.742188 241.429688 -68.804688 C 256.480469 -69.800781 271.539062 -70.839844 286.515625 -72.691406 C 301.359375 -74.53125 315.886719 -78 330.378906 -81.546875 C 340.757812 -84.089844 351.28125 -85.683594 361.949219 -86.011719 C 367.832031 -86.199219 373.734375 -85.839844 379.539062 -84.605469 C 384.527344 -83.542969 389.09375 -81.546875 392.960938 -78.195312 C 401.117188 -71.117188 410.777344 -66.902344 420.808594 -63.363281 C 435.753906 -58.085938 451.132812 -54.566406 466.796875 -52.292969 C 479.152344 -50.503906 491.597656 -50.378906 504.015625 -50.882812 C 514.230469 -51.304688 524.390625 -52.539062 534.378906 -55.03125 C 545.449219 -57.796875 555.539062 -62.496094 563.316406 -70.882812 C 573.160156 -81.488281 585.359375 -87.484375 599 -91.226562 C 608.804688 -93.921875 618.585938 -96.722656 628.492188 -98.996094 C 629.519531 -99.230469 631.144531 -100.054688 631.617188 -99.078125 C 632.203125 -97.875 630.539062 -97.132812 629.683594 -96.382812 C 625.023438 -92.277344 619.914062 -88.675781 615.984375 -83.78125 C 613.289062 -80.417969 611.261719 -76.777344 611.714844 -72.28125 C 612.332031 -66.097656 616.199219 -62.671875 621.804688 -60.914062 C 629.222656 -58.578125 636.894531 -58.496094 644.578125 -58.351562 C 660.59375 -58.042969 675.910156 -60.75 690.261719 -68.1875 C 700.148438 -73.308594 708.878906 -80.097656 717.695312 -86.785156 C 721.492188 -89.65625 725.214844 -92.617188 729.566406 -94.695312 C 734.738281 -97.171875 739.882812 -97.214844 744.53125 -93.945312 C 753.050781 -87.9375 761.382812 -81.609375 767.511719 -72.96875 C 775.957031 -61.058594 779.035156 -47.714844 777.800781 -33.273438 C 777.5625 -30.539062 777.378906 -27.800781 777.160156 -25.066406 C 776.585938 -17.730469 779.425781 -12.144531 785.371094 -7.804688 C 792.878906 -2.332031 800.460938 3.039062 808.125 8.273438 C 817.332031 14.566406 826.023438 21.554688 835.125 28.003906 C 843.5625 33.980469 853.003906 36.714844 863.289062 37.085938 C 875.039062 37.507812 886.066406 34.988281 896.433594 29.535156 C 898.222656 28.597656 898.902344 28.96875 898.859375 31.007812 C 898.800781 34.566406 898.839844 38.113281 898.839844 41.671875 C 898.839844 42.589844 898.71875 43.378906 897.8125 43.957031 C 890.777344 48.421875 883.429688 52.132812 874.851562 52.164062 C 868.546875 52.195312 862.332031 50.960938 856.078125 50.191406 C 845.15625 48.832031 835.765625 44.390625 827.308594 37.375 C 818.851562 30.359375 810.027344 23.804688 800.246094 18.664062 C 792.3125 14.507812 783.777344 12.59375 774.96875 11.648438 C 767.832031 10.875 760.652344 10.433594 753.574219 9.097656 C 751.332031 8.675781 749.183594 7.964844 747.238281 6.761719 C 744.234375 4.898438 743.207031 1.945312 744.359375 -1.40625 C 746.375 -7.269531 750.550781 -11.765625 754.140625 -16.609375 C 758.6875 -22.742188 762.945312 -29.003906 764.355469 -36.71875 C 767.203125 -52.304688 756.433594 -63.824219 742.855469 -63.660156 C 733.804688 -63.558594 725.605469 -60.523438 717.5625 -56.890625 C 706.515625 -51.902344 696.125 -45.628906 685.292969 -40.195312 C 671.921875 -33.488281 657.601562 -30.035156 642.945312 -27.710938 C 631.75 -25.941406 620.5 -24.820312 609.164062 -25.375 C 600.214844 -25.816406 591.285156 -26.679688 582.601562 -29.148438 C 578.683594 -30.261719 575.09375 -31.957031 572.132812 -35.332031 C 571.546875 -33.601562 571.914062 -32.441406 572.800781 -31.453125 C 574.632812 -29.386719 576.667969 -27.617188 579.34375 -26.597656 C 592.242188 -21.671875 605.726562 -19.070312 619.160156 -16.238281 C 627.566406 -14.46875 636.09375 -13.800781 644.640625 -13.246094 C 656.964844 -12.445312 668.238281 -15.972656 679.285156 -20.941406 C 690.035156 -25.773438 700.570312 -31.144531 711.667969 -35.199219 C 717.582031 -37.359375 723.539062 -39.476562 729.957031 -39.570312 C 731.417969 -39.589844 732.859375 -39.488281 734.289062 -39.15625 C 739.171875 -38.015625 740.714844 -34.292969 737.960938 -30.023438 C 736.003906 -27 733.300781 -24.632812 730.449219 -22.523438 C 723.828125 -17.628906 716.953125 -13.050781 710.390625 -8.070312 C 701.886719 -1.613281 694.5625 5.980469 689.664062 15.636719 C 688.082031 18.753906 687.019531 22.035156 686.671875 25.554688 C 685.898438 33.464844 690.898438 35.800781 696.578125 36.582031 C 703.878906 37.589844 711.082031 36.40625 718.273438 35.480469 C 727.222656 34.320312 736.140625 33.09375 745.160156 32.539062 C 756.0625 31.871094 766.75 32.746094 777.214844 35.851562 C 790.144531 39.699219 800.449219 47.238281 808.105469 58.367188 C 810.027344 61.167969 811.910156 63.984375 813.800781 66.804688 C 819.070312 74.671875 826.433594 79.3125 835.660156 81.195312 C 842.6875 82.632812 849.785156 83.878906 856.328125 87.058594 C 864.472656 91.027344 870.582031 96.625 872.351562 106.054688 C 873.792969 113.75 870.625 121.238281 863.835938 125.34375 C 861.121094 126.980469 858.230469 128.246094 855.289062 129.3125 C 845.300781 132.957031 836.804688 138.828125 829.4375 146.390625 C 820.570312 155.503906 812.199219 165.019531 806.117188 176.300781 C 804.007812 180.222656 802.242188 184.296875 801.59375 188.769531 C 801.40625 190.085938 801.203125 191.484375 802.3125 192.378906 C 803.503906 193.335938 804.820312 192.566406 805.945312 191.980469 C 810.828125 189.46875 815.519531 186.609375 820.632812 184.542969 C 836.214844 178.238281 850.8125 181.230469 865 188.976562 C 879.574219 196.9375 890.097656 208.789062 898.132812 223.074219 C 898.398438 223.558594 898.707031 224.113281 898.71875 224.640625 C 898.769531 228.085938 898.75 231.542969 898.75 235.058594 C 897.503906 234.875 897.410156 233.9375 897.0625 233.289062 C 893.007812 225.851562 889.335938 218.199219 883.976562 211.535156 C 874.195312 199.355469 861.902344 191.011719 846.503906 187.917969 C 835.25 185.652344 825.160156 189.191406 815.933594 195.589844 C 808.945312 200.433594 804 207.058594 799.617188 214.207031 C 795.730469 220.554688 792.847656 227.4375 789.042969 233.8125 C 788.261719 235.132812 787.375 236.394531 786.390625 237.570312 C 785.578125 238.535156 784.703125 239.730469 783.179688 239.277344 C 781.761719 238.855469 781.398438 237.539062 781.101562 236.242188 C 780.277344 232.640625 780.421875 228.980469 780.730469 225.378906 C 781.8125 212.71875 784.257812 200.332031 788.25 188.234375 C 793.375 172.742188 801.960938 159.433594 813.257812 147.777344 C 820.644531 140.15625 828.378906 132.964844 837.925781 128.007812 C 842.542969 125.609375 847.4375 123.976562 852.367188 122.421875 C 854.679688 121.691406 856.953125 120.847656 859.082031 119.675781 C 865.347656 116.261719 866.851562 109.058594 862.539062 103.351562 C 859.566406 99.410156 855.328125 97.507812 850.832031 96.007812 C 844.773438 93.988281 838.429688 93.105469 832.371094 91.046875 C 822.289062 87.621094 814.636719 81.367188 809.195312 72.253906 C 806.140625 67.132812 803.238281 61.917969 799.472656 57.226562 C 791.695312 47.546875 781.566406 41.859375 769.582031 39.296875 C 759.210938 37.074219 748.769531 37.363281 738.308594 38.742188 C 723.105469 40.746094 708.488281 44.902344 694.304688 50.632812 C 685.128906 54.347656 677.144531 59.941406 669.851562 66.546875 C 667.929688 68.292969 665.894531 69.910156 663.691406 71.238281 C 659.84375 73.5625 657.449219 72.191406 656.75 67.769531 C 655.988281 62.925781 656.832031 58.078125 657.816406 53.339844 C 659.855469 43.515625 662.589844 33.886719 665.789062 24.382812 C 666.519531 22.210938 666.796875 19.980469 667.148438 17.746094 C 667.40625 16.109375 666.582031 15.855469 665.316406 16.480469 C 663.207031 17.519531 661.222656 18.765625 659.617188 20.523438 C 655.410156 25.113281 651.195312 29.679688 647.015625 34.289062 C 644.457031 37.117188 641.824219 39.832031 638.613281 41.929688 C 633.6875 45.140625 629.304688 44.789062 625.34375 40.460938 C 622.03125 36.828125 619.078125 32.859375 615.941406 29.0625 C 606.53125 17.664062 596.097656 7.554688 581.945312 2.164062 C 571.433594 -1.839844 560.609375 -4.851562 549.65625 -7.34375 C 532.003906 -11.363281 515.09375 -17.339844 499.015625 -25.765625 C 488.800781 -31.125 477.691406 -34.105469 466.5625 -36.988281 C 444.753906 -42.636719 423 -48.5 401.171875 -54.0625 C 393.515625 -56.019531 385.742188 -57.449219 377.738281 -57.488281 C 371.875 -57.507812 366.382812 -55.964844 360.859375 -54.515625 C 353.472656 -52.570312 345.960938 -51.460938 338.382812 -51.050781 C 321.921875 -50.144531 305.445312 -49.980469 288.976562 -49.425781 C 271.953125 -48.847656 254.9375 -48.035156 237.933594 -46.789062 C 222.792969 -45.691406 207.691406 -44.21875 192.601562 -42.664062 C 176.144531 -40.96875 159.683594 -39.28125 143.308594 -36.957031 C 124.371094 -34.273438 105.453125 -31.441406 86.507812 -28.871094 C 74.832031 -27.289062 63.09375 -26.21875 51.417969 -24.695312 C 33.429688 -22.351562 15.910156 -18.058594 -1.15625 -11.847656 C -23.628906 -3.648438 -44.613281 7.605469 -65.433594 19.207031 C -67.277344 20.234375 -68.890625 21.972656 -71.320312 21.644531 C -71.308594 14.011719 -71.308594 6.421875 -71.308594 -1.179688 Z M -71.308594 -1.179688 "/><path style=" stroke:none;fill-rule:nonzero;fill:#d9d9d9;fill-opacity:1;" d="M -71.308594 26.460938 C -69.890625 26.316406 -68.746094 25.535156 -67.5625 24.84375 C -43.800781 10.949219 -19.445312 -1.675781 7.003906 -9.789062 C 21.792969 -14.335938 36.894531 -17.359375 52.304688 -18.832031 C 73.03125 -20.808594 93.769531 -22.554688 114.464844 -24.878906 C 136.046875 -27.316406 157.71875 -28.921875 179.34375 -30.960938 C 193.167969 -32.265625 206.960938 -33.789062 220.785156 -35.0625 C 230.917969 -36 241.0625 -36.832031 251.214844 -37.480469 C 268.867188 -38.59375 286.539062 -39.488281 304.242188 -39.570312 C 323.238281 -39.660156 342.1875 -38.582031 361.136719 -37.316406 C 370.320312 -36.699219 379.507812 -36.238281 388.660156 -35.21875 C 404.480469 -33.460938 419.777344 -29.550781 434.816406 -24.40625 C 458.507812 -16.300781 482.113281 -7.886719 506.402344 -1.664062 C 518.519531 1.441406 530.996094 2.894531 543.132812 5.957031 C 551.21875 8.003906 559.160156 10.433594 566.597656 14.28125 C 571.597656 16.863281 576.203125 19.980469 579.703125 24.464844 C 585.019531 31.285156 586.140625 39.082031 584.824219 47.414062 C 583.835938 53.667969 581.945312 59.675781 579.898438 65.628906 C 576.328125 76.03125 572.707031 86.417969 570.402344 97.1875 C 568.964844 103.90625 567.925781 110.675781 569.167969 117.597656 C 570.507812 125.046875 573.953125 131.15625 579.835938 135.988281 C 585.71875 140.824219 592.582031 143.539062 599.6875 145.78125 C 610.386719 149.167969 621.332031 151.789062 631.804688 155.925781 C 641.8125 159.863281 651.214844 164.875 659.238281 172.054688 C 667.15625 179.140625 672.269531 187.679688 672.34375 198.820312 C 672.363281 202.644531 672.363281 206.566406 673.144531 210.390625 C 674.019531 214.671875 676.273438 215.832031 680.078125 213.726562 C 686.773438 210.011719 691.710938 204.292969 696.753906 198.738281 C 699.199219 196.042969 701.269531 193.058594 703.039062 189.851562 C 706.679688 183.234375 707.140625 176.375 705.0625 169.234375 C 703.097656 162.5 699.601562 156.480469 696.308594 150.359375 C 690.714844 139.960938 685.054688 129.582031 682.503906 117.917969 C 680.285156 107.703125 679.6875 97.414062 682.472656 87.210938 C 686.425781 72.726562 696.054688 62.925781 708.890625 55.917969 C 720.296875 49.695312 732.589844 46.242188 745.449219 44.808594 C 753.75 43.882812 762.03125 44.214844 770.15625 46.363281 C 782.746094 49.695312 791.808594 57.492188 798.003906 68.769531 C 803.277344 78.386719 807.9375 88.34375 814.605469 97.167969 C 817.867188 101.480469 817.886719 106.273438 815.777344 111.167969 C 812.394531 119.015625 807.640625 126.042969 802.640625 132.902344 C 797.890625 139.4375 792.867188 145.773438 788.097656 152.292969 C 777.644531 166.582031 771.535156 182.679688 768.347656 200.003906 C 765.382812 216.101562 762.183594 232.167969 759.335938 248.289062 C 757.914062 256.3125 756.804688 264.40625 757.574219 272.613281 C 757.945312 276.597656 758.65625 280.472656 760.898438 283.878906 C 763.71875 288.167969 767.789062 289.136719 772.246094 286.59375 C 775.855469 284.535156 778.386719 281.367188 780.617188 277.984375 C 786.554688 269.015625 790.113281 258.953125 793.734375 248.925781 C 797.324219 238.988281 800.574219 228.917969 805.769531 219.640625 C 810.015625 212.058594 815.398438 205.535156 822.914062 200.949219 C 836.0625 192.925781 849.117188 193.808594 862.054688 201.351562 C 873.945312 208.273438 881.941406 218.632812 887.546875 230.953125 C 891.28125 239.183594 894.839844 247.496094 898.304688 255.835938 C 899.570312 258.894531 898.636719 262.195312 898.820312 265.628906 C 897.511719 265.054688 897.398438 264.003906 897.082031 263.203125 C 893.59375 254.601562 890.261719 245.953125 886.671875 237.394531 C 882.585938 227.652344 877.539062 218.488281 869.574219 211.257812 C 862.40625 204.734375 854.21875 200.105469 844.433594 199.394531 C 834.355469 198.65625 825.847656 202.78125 818.542969 209.457031 C 810.191406 217.089844 805.644531 227.066406 801.789062 237.425781 C 797.054688 250.117188 793.507812 263.234375 788.148438 275.699219 C 784.691406 283.746094 780.78125 291.542969 774.722656 298.011719 C 771.113281 301.871094 766.96875 304.945312 761.496094 305.4375 C 754.828125 306.035156 749.027344 302.179688 745.625 295.234375 C 741.601562 287.035156 741.753906 278.539062 743.667969 269.898438 C 745.203125 263.019531 747.640625 256.425781 750.003906 249.808594 C 756.363281 232.054688 760.28125 213.703125 763.664062 195.210938 C 765.199219 186.804688 766.875 178.433594 769.714844 170.335938 C 773.878906 158.445312 781.171875 148.550781 789.339844 139.179688 C 795.59375 132 801.953125 124.878906 806.878906 116.671875 C 807.835938 115.085938 808.648438 113.410156 809.410156 111.714844 C 811.261719 107.589844 811.457031 103.339844 809.390625 99.308594 C 804.152344 89.113281 799.6875 78.519531 793.886719 68.625 C 786.449219 55.949219 775.21875 49.101562 760.578125 47.949219 C 740.625 46.382812 722.304688 51.15625 706.011719 62.820312 C 696.042969 69.949219 689.632812 79.691406 688.472656 92.046875 C 687.257812 104.976562 689.59375 117.484375 695.3125 129.242188 C 700.992188 140.898438 707.945312 151.738281 717.933594 160.121094 C 729.9375 170.191406 727.035156 184.386719 720.347656 193.335938 C 716.503906 198.492188 711.792969 202.832031 707.050781 207.078125 C 688.164062 224.03125 673.925781 244.296875 663.496094 267.347656 C 661.128906 272.574219 658.609375 277.738281 655.390625 282.511719 C 654.898438 283.242188 654.382812 283.992188 653.753906 284.609375 C 650.914062 287.40625 648.695312 286.921875 647.128906 283.261719 C 645.441406 279.300781 645.320312 275.0625 645 270.898438 C 643.878906 256.363281 644.488281 241.847656 645.710938 227.332031 C 646.492188 218.097656 647.550781 208.859375 646.472656 199.53125 C 645.132812 187.957031 639.21875 179.75 629.003906 174.421875 C 621.199219 170.347656 612.753906 168.660156 604.121094 167.660156 C 592.652344 166.34375 581.113281 165.726562 569.847656 162.808594 C 551.199219 157.972656 536.632812 147.5 526.46875 131.246094 C 519.761719 120.527344 520.039062 109.285156 526.253906 98.339844 C 529.472656 92.664062 535.027344 89.546875 540.800781 87.148438 C 552.433594 82.304688 560.753906 73.960938 567.132812 63.386719 C 570.703125 57.460938 573.613281 51.28125 574.722656 44.378906 C 576.214844 35.046875 572.933594 27.714844 565.320312 22.292969 C 557.183594 16.492188 547.761719 13.867188 538.226562 11.605469 C 527.21875 9.003906 515.96875 7.832031 504.828125 6.011719 C 488.070312 3.285156 471.664062 -1.046875 455.214844 -5.171875 C 427.84375 -12.03125 400.253906 -17.679688 372.265625 -21.414062 C 343.484375 -25.25 314.628906 -28.007812 285.558594 -27.234375 C 270.625 -26.84375 255.71875 -25.960938 240.835938 -24.511719 C 215.167969 -22.011719 189.78125 -17.585938 164.28125 -13.945312 C 150.839844 -12.03125 137.3125 -10.902344 123.722656 -10.828125 C 108.449219 -10.757812 93.171875 -10.789062 77.898438 -10.695312 C 48.960938 -10.511719 20.550781 -7.09375 -6.832031 2.871094 C -28.105469 10.609375 -48.214844 20.679688 -67.367188 32.722656 C -68.5625 33.476562 -69.621094 34.679688 -71.296875 34.226562 C -71.308594 31.632812 -71.308594 29.050781 -71.308594 26.460938 Z M -71.308594 26.460938 "/><path style=" stroke:none;fill-rule:nonzero;fill:#d9d9d9;fill-opacity:1;" d="M 50.421875 720.972656 C 56.890625 714.894531 64.648438 710.632812 71.953125 705.726562 C 80.140625 700.222656 88.574219 695.121094 97.246094 690.429688 C 109.722656 683.671875 117.46875 673.097656 123.042969 660.332031 C 132.714844 638.21875 142.496094 616.140625 152.238281 594.058594 C 159.210938 578.246094 167.503906 563.042969 174.433594 547.191406 C 182.796875 528.089844 190.277344 508.628906 198.339844 489.414062 C 201.746094 481.296875 205.347656 473.242188 210.429688 465.980469 C 211.105469 465.003906 211.960938 464.066406 212.917969 463.367188 C 215.3125 461.628906 217.207031 462.265625 218.101562 465.117188 C 219.222656 468.6875 219.789062 472.378906 219.625 476.101562 C 218.933594 491.441406 217.1875 506.664062 214.757812 521.835938 C 212.15625 538.078125 209.503906 554.3125 207.621094 570.667969 C 206.167969 583.320312 205.492188 596.054688 203.351562 608.632812 C 202.34375 614.527344 201.027344 620.339844 199.308594 626.070312 C 196.53125 635.328125 190.875 642.261719 182.757812 647.402344 C 176.679688 651.261719 170.957031 655.621094 166.101562 661.023438 C 157.351562 670.742188 154.089844 682.121094 155.714844 695.03125 C 156.835938 703.925781 159.644531 712.125 165.382812 719.171875 C 165.792969 719.675781 166.074219 720.273438 165.847656 720.972656 C 164.714844 720.972656 163.582031 720.972656 162.453125 720.972656 C 157.042969 713.800781 153.882812 705.738281 152.433594 696.882812 C 149.839844 681.050781 153.84375 667.183594 164.304688 655.097656 C 168.757812 649.953125 173.675781 645.273438 178.703125 640.71875 C 190.316406 630.203125 195.71875 616.648438 198.175781 601.609375 C 199.976562 590.613281 200.574219 579.492188 201.652344 568.421875 C 202.578125 558.941406 203.320312 549.457031 203.894531 539.949219 C 204.144531 535.90625 204.144531 531.855469 203.0625 527.925781 C 202.117188 524.480469 200.222656 523.964844 197.691406 526.496094 C 193.578125 530.589844 190.761719 535.628906 188.035156 540.671875 C 177.65625 559.84375 167.347656 579.070312 157.09375 598.316406 C 152.144531 607.59375 148.761719 617.582031 144.140625 627.003906 C 136.109375 643.402344 129.421875 660.386719 121.921875 677.019531 C 118.589844 684.414062 113.40625 690.359375 106.523438 694.667969 C 95.363281 701.652344 84.222656 708.667969 73.660156 716.558594 C 71.714844 718.007812 69.8125 719.511719 67.886719 720.984375 C 62.054688 720.972656 56.242188 720.972656 50.421875 720.972656 Z M 50.421875 720.972656 "/><path style=" stroke:none;fill-rule:nonzero;fill:#d9d9d9;fill-opacity:1;" d="M 757.183594 63.121094 C 770.949219 63.078125 780.144531 70.175781 786.398438 81.871094 C 790.265625 89.113281 793.21875 96.683594 793.917969 104.925781 C 794.351562 109.953125 792.828125 114.613281 790.203125 118.933594 C 787.4375 123.480469 783.671875 127.152344 779.824219 130.703125 C 772.996094 137 767.265625 144.136719 762.667969 152.203125 C 762.101562 153.199219 761.414062 155.09375 760.414062 154.660156 C 759.035156 154.054688 760.085938 152.355469 760.445312 151.222656 C 762.207031 145.597656 765.488281 140.785156 768.820312 136.011719 C 772.050781 131.371094 775.25 126.722656 777.921875 121.722656 C 780.082031 117.679688 781.769531 113.433594 781.957031 108.894531 C 782.347656 99.09375 775.558594 83.445312 760.640625 83.683594 C 756.566406 83.746094 752.617188 84.351562 748.667969 85.226562 C 744.820312 86.070312 740.964844 87.191406 736.953125 86.449219 C 730.605469 85.277344 728.25 80.011719 731.632812 74.457031 C 734 70.566406 737.671875 68.210938 741.683594 66.382812 C 746.878906 63.964844 751.117188 63.160156 757.183594 63.121094 Z M 757.183594 63.121094 "/></g></svg>