<svg xmlns="http://www.w3.org/2000/svg" xmlns:xlink="http://www.w3.org/1999/xlink" width="1200" zoomAndPan="magnify" viewBox="0 0 900 470.999988" height="628" preserveAspectRatio="xMidYMid meet" version="1.2"><g id="49e6cfc2df"><path style=" stroke:none;fill-rule:nonzero;fill:#f4f0e8;fill-opacity:1;" d="M -162.011719 -181.53125 C -160.910156 -181.914062 -160.011719 -182.609375 -159.078125 -183.296875 C -135.457031 -200.449219 -109.6875 -213.113281 -81.265625 -220.054688 C -74.335938 -221.742188 -67.25 -223 -60.066406 -221.007812 C -53.957031 -219.324219 -51.652344 -215.621094 -53.148438 -209.480469 C -54.292969 -204.769531 -56.78125 -200.664062 -59.378906 -196.667969 C -67.34375 -184.445312 -76.363281 -172.972656 -84.84375 -161.117188 C -97.070312 -144.007812 -109.578125 -127.082031 -120.722656 -109.230469 C -124.511719 -103.167969 -128.101562 -96.980469 -130.441406 -90.144531 C -131.183594 -87.972656 -131.25 -85.824219 -131.398438 -83.640625 C -131.507812 -81.910156 -129.28125 -80.617188 -127.15625 -80.886719 C -122.003906 -81.550781 -117.6875 -84.25 -113.402344 -86.792969 C -97.789062 -96.058594 -83.898438 -107.769531 -69.117188 -118.21875 C -59.917969 -124.71875 -50.089844 -130.207031 -39.222656 -133.367188 C -31.574219 -135.59375 -23.566406 -136.84375 -15.703125 -135.066406 C -11.835938 -134.1875 -7.628906 -133.335938 -4.289062 -130.679688 C -3.90625 -130.375 -3.285156 -130.140625 -2.824219 -130.207031 C 1.210938 -130.746094 5.261719 -130.355469 9.277344 -132.097656 C 26.417969 -139.566406 42.1875 -149.574219 58.453125 -158.628906 C 79.902344 -170.574219 102.113281 -180.753906 125.21875 -188.976562 C 144.304688 -195.769531 163.75 -201.347656 183.703125 -204.980469 C 202.535156 -208.414062 221.53125 -209.75 240.675781 -209.132812 C 267.039062 -208.277344 292.761719 -203.363281 318.394531 -197.625 C 332.363281 -194.5 346.335938 -191.394531 360.585938 -189.785156 C 371.878906 -188.503906 382.597656 -190.449219 392.6875 -195.679688 C 406.710938 -202.945312 421.75 -206.265625 437.371094 -207.816406 C 450.386719 -209.109375 463.375 -210.191406 476.457031 -209.808594 C 480.800781 -209.683594 485.085938 -209.066406 489.101562 -207.320312 C 494.332031 -205.050781 494.757812 -201.472656 490.234375 -198.007812 C 484.9375 -193.949219 478.761719 -191.394531 472.9375 -188.257812 C 463.578125 -183.207031 457.324219 -175.839844 454.1875 -165.648438 C 451.105469 -155.617188 448.292969 -145.492188 444.074219 -135.832031 C 438.316406 -122.648438 430.464844 -110.691406 422.761719 -98.636719 C 419.433594 -93.429688 416.023438 -88.253906 413.683594 -82.484375 C 409.738281 -72.753906 411.773438 -65.703125 420.332031 -59.605469 C 426.351562 -55.320312 433.109375 -52.441406 439.835938 -49.515625 C 451.285156 -44.546875 462.195312 -38.539062 472.949219 -32.230469 C 484.746094 -25.289062 497.703125 -22.117188 511.144531 -20.429688 C 523.339844 -18.902344 535.632812 -18.890625 547.859375 -17.765625 C 551.378906 -17.4375 554.875 -16.921875 558.328125 -16.179688 C 570.78125 -13.503906 578.710938 -5.933594 582.691406 6.070312 C 585.628906 14.921875 587.113281 24.054688 588.394531 33.230469 C 590.519531 48.460938 591.566406 63.792969 591.5 79.15625 C 591.429688 93.632812 590.304688 108.074219 588.6875 122.46875 C 587.539062 132.648438 586.371094 142.828125 585.953125 153.0625 C 585.785156 157.136719 586.097656 161.207031 587.03125 165.175781 C 588.753906 172.554688 594.097656 175.804688 601.386719 173.648438 C 611.238281 170.722656 618.007812 163.882812 623.308594 155.4375 C 629.550781 145.492188 632.585938 134.3125 635.351562 123.078125 C 640.582031 101.761719 645.410156 80.347656 652.382812 59.507812 C 657.746094 43.476562 665.011719 28.472656 675.609375 15.179688 C 683.886719 4.785156 694.042969 -3.253906 705.5625 -9.722656 C 714.050781 -14.492188 721.273438 -20.464844 725.199219 -29.753906 C 727.515625 -35.242188 728.84375 -40.96875 729.777344 -46.804688 C 732.195312 -61.945312 734.277344 -77.175781 740.382812 -91.4375 C 742.328125 -95.980469 744.511719 -100.425781 746.582031 -104.910156 C 747.917969 -107.800781 749.101562 -110.75 749.71875 -113.886719 C 750.832031 -119.578125 747.46875 -123.863281 741.644531 -124.121094 C 737.097656 -124.3125 732.960938 -122.707031 728.832031 -121.140625 C 723.792969 -119.230469 718.945312 -116.84375 713.761719 -115.328125 C 704.875 -112.738281 698.980469 -114.449219 693.46875 -121.816406 C 684.753906 -133.457031 681.660156 -150.171875 689.488281 -162.824219 C 694.550781 -171.015625 701.816406 -176.59375 710.398438 -180.5625 C 718.710938 -184.410156 727.460938 -186.480469 736.636719 -187.175781 C 747.570312 -188.007812 757.683594 -186.0625 766.828125 -179.898438 C 771.976562 -176.433594 775.847656 -171.746094 779.007812 -166.457031 C 783.867188 -158.328125 787.511719 -149.632812 790.773438 -140.757812 C 794.628906 -130.273438 792.640625 -120.917969 786.195312 -112.085938 C 781.707031 -105.945312 776.703125 -100.242188 771.4375 -94.8125 C 759.269531 -82.246094 751.933594 -67.355469 748.660156 -50.28125 C 746.152344 -37.234375 744.253906 -24.085938 741.136719 -11.152344 C 736.617188 7.621094 728.15625 24.335938 715.988281 39.316406 C 707.136719 50.214844 701.140625 62.519531 699.679688 76.660156 C 697.921875 93.621094 700.0625 109.78125 710.160156 124.15625 C 711.34375 125.84375 712.871094 127.160156 714.523438 128.375 C 716.851562 130.085938 719.519531 130.769531 722.003906 129.355469 C 734.816406 121.988281 748.898438 116.566406 759.199219 105.296875 C 767.300781 96.433594 772.910156 86.0625 777.636719 75.152344 C 784.597656 59.089844 789.085938 42.171875 794.484375 25.570312 C 797.824219 15.3125 801.59375 5.246094 807.96875 -3.617188 C 811.097656 -7.945312 814.796875 -11.703125 819.207031 -14.75 C 832.488281 -23.917969 847.023438 -23.546875 860 -13.882812 C 870.519531 -6.054688 876.773438 4.765625 881.84375 16.472656 C 887.109375 28.632812 890.203125 41.632812 895.691406 53.644531 C 899.445312 61.878906 898.511719 70.144531 898.761719 78.515625 C 898.773438 79.019531 898.894531 79.683594 898.332031 79.929688 C 897.601562 80.257812 897.21875 79.558594 896.835938 79.132812 C 894.609375 76.558594 893.238281 73.488281 892.011719 70.347656 C 888.59375 61.621094 886.660156 52.441406 884.152344 43.445312 C 880.371094 29.890625 876.132812 16.539062 868.15625 4.742188 C 864.90625 -0.0625 860.992188 -4.246094 856.144531 -7.460938 C 845.234375 -14.695312 833.289062 -14.199219 822.367188 -6.136719 C 812.898438 0.859375 807.417969 10.636719 803.28125 21.320312 C 798.242188 34.34375 794.8125 47.863281 790.894531 61.238281 C 785.417969 79.988281 778.816406 98.320312 770.988281 116.207031 C 769.222656 120.242188 767.558594 124.335938 767.613281 128.914062 C 767.660156 132.480469 769.210938 134.976562 772.347656 136.5625 C 774.722656 137.765625 777.242188 138.566406 779.773438 139.375 C 784.058594 140.734375 785.023438 143.199219 782.753906 147.035156 C 777.894531 155.246094 770.449219 160.375 761.800781 163.75 C 740.753906 171.949219 720.429688 165.445312 707.148438 146.496094 C 698.710938 134.460938 694.167969 120.953125 691.996094 106.53125 C 689.703125 91.304688 690.433594 76.320312 695.304688 61.621094 C 698.8125 51.046875 704.492188 41.679688 712.085938 33.691406 C 726.199219 18.835938 734.511719 1.210938 738.820312 -18.597656 C 741.304688 -30.046875 742.6875 -41.679688 745.117188 -53.128906 C 748.875 -70.867188 756.960938 -86.207031 769.851562 -99.019531 C 774.296875 -103.425781 778.398438 -108.152344 782.089844 -113.234375 C 787.859375 -121.1875 789.152344 -129.847656 786.410156 -139.105469 C 783.28125 -149.65625 778.960938 -159.722656 772.023438 -168.371094 C 765.128906 -176.953125 755.917969 -181.339844 744.949219 -181.914062 C 733.535156 -182.507812 722.871094 -179.910156 713.074219 -173.996094 C 708.160156 -171.023438 704.066406 -167.144531 701.308594 -162.050781 C 695.886719 -152.039062 699.308594 -140.027344 708.832031 -135.730469 C 714.164062 -133.324219 719.574219 -134.15625 724.863281 -136.011719 C 730.023438 -137.824219 735.109375 -139.871094 740.257812 -141.703125 C 743.273438 -142.769531 746.410156 -143.355469 749.617188 -143.234375 C 761.011719 -142.769531 765.9375 -130.925781 764.914062 -123.378906 C 764.105469 -117.441406 761.382812 -112.324219 758.15625 -107.429688 C 753.148438 -99.839844 747.796875 -92.472656 744.308594 -83.980469 C 740.148438 -73.867188 738.132812 -63.238281 736.492188 -52.507812 C 734.859375 -41.890625 733.535156 -31.207031 729.089844 -21.242188 C 725.054688 -12.199219 718.808594 -5.347656 709.9375 -0.804688 C 703.1875 2.660156 696.292969 5.878906 690.355469 10.734375 C 680.570312 18.746094 673.054688 28.585938 667.050781 39.609375 C 658.648438 54.996094 653.910156 71.710938 649.558594 88.558594 C 645.128906 105.722656 642.527344 123.257812 638.929688 140.589844 C 636.972656 150.015625 634.992188 159.519531 629.84375 167.820312 C 620.472656 182.925781 606.851562 192.183594 589.496094 195.929688 C 587.078125 196.445312 584.546875 196.367188 582.09375 196.007812 C 573.851562 194.824219 569.429688 189.167969 569.105469 179.617188 C 568.800781 170.992188 570.410156 162.566406 571.984375 154.164062 C 574.726562 139.621094 577.394531 125.066406 579.070312 110.355469 C 580.53125 97.546875 581.152344 84.65625 580.160156 71.789062 C 579.183594 59.011719 576.820312 46.503906 572.546875 34.3125 C 566.269531 16.394531 553.617188 7.429688 535.035156 5.617188 C 520.007812 4.15625 504.902344 3.4375 489.957031 1.109375 C 475.253906 -1.175781 461.464844 -5.628906 449.195312 -14.300781 C 438.09375 -22.152344 425.71875 -27.628906 413.382812 -33.175781 C 404.441406 -37.203125 395.507812 -41.285156 387.75 -47.46875 C 378.671875 -54.691406 377.378906 -62.574219 383.765625 -72.238281 C 384.789062 -73.777344 385.9375 -75.25 387.117188 -76.679688 C 394.136719 -85.226562 402.101562 -92.898438 409.433594 -101.167969 C 426.101562 -119.960938 438.203125 -141.039062 442.882812 -166.007812 C 444.582031 -175.039062 447.867188 -183.441406 453.242188 -191.011719 C 456.257812 -195.253906 455.167969 -197.457031 449.925781 -197.875 C 435.03125 -199.042969 421.625 -195.363281 410.128906 -185.457031 C 404.101562 -180.257812 398.847656 -174.242188 392.6875 -169.191406 C 380.042969 -158.820312 365.792969 -156.796875 350.25 -160.417969 C 336.121094 -163.714844 322.421875 -168.4375 308.566406 -172.644531 C 307.652344 -172.925781 306.730469 -173.207031 305.71875 -173.183594 C 311.410156 -171.238281 317.101562 -169.25 322.816406 -167.347656 C 333.625 -163.769531 344.320312 -159.8125 355.558594 -157.628906 C 369.851562 -154.863281 382.460938 -158.214844 393.710938 -167.425781 C 400.222656 -172.769531 405.734375 -179.144531 412.144531 -184.566406 C 421.277344 -192.304688 431.636719 -196.570312 443.796875 -195.457031 C 447.609375 -195.105469 449.351562 -192.925781 447.933594 -189.808594 C 442.871094 -178.664062 441.230469 -166.605469 438.261719 -154.90625 C 433.976562 -138.058594 425.347656 -123.503906 414.539062 -110.074219 C 405.644531 -99.019531 395.148438 -89.523438 385.070312 -79.617188 C 381.539062 -76.140625 378.074219 -72.597656 375.34375 -68.4375 C 370.167969 -60.550781 370.820312 -54.207031 377.46875 -47.492188 C 382.820312 -42.082031 389.289062 -38.28125 395.9375 -34.75 C 406.542969 -29.101562 417.609375 -24.332031 428.035156 -18.351562 C 432.175781 -15.976562 436.371094 -13.625 440.140625 -10.722656 C 454.121094 0.0390625 470.035156 5.664062 487.3125 8.214844 C 500.15625 10.117188 513.089844 11.230469 525.957031 12.90625 C 532.371094 13.738281 538.714844 14.851562 544.820312 17.035156 C 555.945312 21.015625 563.054688 29.183594 567.742188 39.652344 C 573.34375 52.148438 575.671875 65.386719 576.347656 78.976562 C 577.597656 104.082031 572.894531 128.476562 567.652344 152.816406 C 565.449219 163.0625 562.726562 173.242188 562.511719 183.816406 C 562.480469 185.582031 562.46875 187.367188 562.738281 189.101562 C 564.359375 199.472656 571.265625 204.710938 582.65625 203.117188 C 602.644531 200.304688 618.851562 190.53125 631 174.445312 C 636.488281 167.179688 638.390625 158.304688 640.132812 149.542969 C 643.597656 132.109375 645.667969 114.417969 649.707031 97.085938 C 653.777344 79.628906 658.433594 62.328125 666.746094 46.324219 C 675.609375 29.25 687.9375 15.574219 705.910156 7.609375 C 714.234375 3.921875 721.722656 -1.015625 727.5625 -8.171875 C 727.945312 -8.644531 728.40625 -9.09375 728.898438 -9.453125 C 730.023438 -10.273438 730.675781 -10.070312 730.675781 -8.554688 C 730.6875 -7.023438 730.292969 -5.585938 729.902344 -4.132812 C 726.832031 7.113281 720.957031 16.808594 712.972656 25.144531 C 699.890625 38.789062 690.589844 54.308594 687.484375 73.214844 C 685.84375 83.203125 685.730469 93.203125 686.574219 103.257812 C 687.542969 114.777344 690.296875 125.84375 694.730469 136.484375 C 699.972656 149.070312 707.125 160.328125 718.664062 168.125 C 729.585938 175.503906 741.777344 177.59375 754.769531 176.367188 C 764.835938 175.421875 774.476562 172.476562 784.339844 170.597656 C 791.851562 169.171875 797.53125 165.234375 801.996094 159.351562 C 815.054688 142.175781 825.066406 123.414062 830.691406 102.484375 C 832.433594 95.96875 833.546875 89.347656 832.277344 82.585938 C 831.34375 77.636719 828.800781 75.65625 823.785156 75.679688 C 822.367188 75.691406 820.960938 75.824219 819.542969 75.824219 C 814.730469 75.824219 811.917969 73.6875 810.917969 68.941406 C 809.726562 63.308594 810.398438 57.660156 811.480469 52.105469 C 813.886719 39.753906 817.753906 27.988281 825.921875 18.082031 C 829.710938 13.480469 834.289062 9.835938 840.285156 8.710938 C 848.484375 7.171875 854.726562 10.917969 859.789062 16.898438 C 866.085938 24.347656 869.425781 33.242188 871.867188 42.542969 C 875.164062 55.121094 876.0625 67.964844 875.296875 80.855469 C 874.355469 96.734375 870.226562 111.941406 864.558594 126.777344 C 859.800781 139.230469 854.480469 151.476562 850.609375 164.265625 C 847.898438 173.21875 846.042969 182.308594 847.574219 191.6875 C 849.632812 204.351562 857.964844 211.96875 870.730469 213.472656 C 877.085938 214.226562 883.441406 213.800781 889.796875 213.890625 C 892.089844 213.925781 894.375 214.058594 896.65625 214.339844 C 898.234375 214.53125 898.773438 215.25 898.761719 216.746094 C 898.726562 223.203125 898.738281 229.648438 898.761719 236.105469 C 898.761719 237.351562 898.515625 238.230469 896.960938 237.894531 C 891.539062 236.691406 886.398438 238.09375 881.359375 239.761719 C 868.078125 244.15625 855.515625 250.265625 842.847656 256.125 C 839.578125 257.644531 836.382812 259.386719 832.75 260.027344 C 828.542969 260.757812 825.257812 259.171875 822.773438 255.921875 C 818.398438 250.199219 817.09375 243.449219 816.800781 236.476562 C 816.070312 218.785156 820.398438 201.980469 825.988281 185.421875 C 831.457031 169.214844 839.183594 154.007812 846.730469 138.734375 C 852.445312 127.171875 858.179688 115.644531 862.519531 103.460938 C 867.269531 90.15625 869.5625 76.46875 868.605469 62.386719 C 867.875 51.667969 865.738281 41.21875 859.496094 32.085938 C 858.136719 30.09375 856.503906 28.351562 854.535156 26.964844 C 851.621094 24.941406 848.472656 23.953125 845.078125 25.671875 C 841.625 27.417969 840.339844 30.507812 840.308594 34.210938 C 840.285156 37.359375 841.261719 40.316406 842.34375 43.21875 C 845.558594 51.890625 846.855469 60.855469 846.144531 70.035156 C 845.300781 80.988281 842.660156 91.585938 839.058594 101.953125 C 832.265625 121.546875 822.863281 139.902344 812.503906 157.789062 C 804.890625 170.925781 797.453125 184.164062 788.535156 196.480469 C 781.101562 206.738281 772.382812 215.65625 761.359375 222.125 C 756.433594 225.015625 751.191406 227.039062 745.558594 228.027344 C 743.703125 228.355469 741.878906 228.480469 740.046875 227.960938 C 737.234375 227.175781 736.265625 225.105469 737.59375 222.472656 C 739.742188 218.222656 743.152344 214.980469 746.402344 211.617188 C 750.945312 206.917969 755.691406 202.394531 759.066406 196.703125 C 759.289062 196.320312 759.527344 195.949219 759.730469 195.558594 C 762.371094 190.550781 761.023438 187.324219 755.5 186.210938 C 750.148438 185.128906 744.714844 184.46875 739.328125 183.554688 C 719.101562 180.160156 704.929688 168.539062 695.257812 150.902344 C 688.261719 138.160156 684.144531 124.496094 681.941406 110.144531 C 680.253906 99.164062 679.996094 88.175781 681.03125 77.164062 C 682.085938 65.949219 684.988281 55.140625 688.890625 44.589844 C 689.351562 43.355469 689.769531 42.09375 690.1875 40.835938 C 690.488281 39.914062 690.996094 38.800781 690.195312 38.089844 C 689.171875 37.167969 688.136719 38.238281 687.386719 38.777344 C 684.144531 41.105469 681.421875 44.007812 678.746094 46.953125 C 669.679688 56.894531 664.382812 68.910156 660.066406 81.417969 C 655.015625 96.050781 652.226562 111.1875 649.964844 126.464844 C 648.109375 138.992188 646.9375 151.613281 644.386719 164.042969 C 641.898438 176.121094 635.792969 185.660156 625.882812 192.992188 C 612.027344 203.238281 597.15625 211.292969 580.171875 214.949219 C 574.367188 216.195312 568.53125 216.90625 562.605469 215.398438 C 554.527344 213.339844 549.589844 207.253906 548.871094 198.921875 C 548.09375 189.921875 550.175781 181.386719 552.449219 172.859375 C 556.460938 157.777344 560.816406 142.792969 563.480469 127.386719 C 565.425781 116.160156 566.992188 104.867188 566.855469 93.460938 C 566.742188 83.914062 565.4375 74.5 562.277344 65.378906 C 557.058594 50.351562 546.777344 40.835938 531.570312 36.492188 C 518.265625 32.691406 504.554688 31.183594 490.933594 29.160156 C 479.238281 27.417969 467.515625 25.808594 456 23.019531 C 444.066406 20.128906 433.03125 15.382812 423.359375 7.765625 C 407.9375 -4.359375 390.863281 -13.828125 373.8125 -23.355469 C 364.015625 -28.832031 354.296875 -34.46875 345.964844 -42.140625 C 345.121094 -42.914062 344.320312 -43.746094 343.578125 -44.613281 C 336.910156 -52.316406 337.4375 -59.472656 345.085938 -66.289062 C 350.921875 -71.472656 357.414062 -75.746094 363.882812 -80.066406 C 376.242188 -88.320312 388.457031 -96.769531 398.738281 -107.609375 C 408.230469 -117.632812 416.476562 -128.496094 420.378906 -142.0625 C 421.332031 -145.390625 422.007812 -148.765625 421.683594 -152.265625 C 421.265625 -156.753906 418.453125 -158.40625 414.328125 -156.605469 C 407.9375 -153.828125 402.707031 -149.226562 396.902344 -145.539062 C 388.546875 -140.230469 379.832031 -135.898438 369.863281 -134.59375 C 361.125 -133.457031 352.621094 -134.605469 344.207031 -137.058594 C 332.78125 -140.398438 322.175781 -145.660156 311.5 -150.789062 C 296.453125 -158.035156 281.402344 -165.265625 265.09375 -169.371094 C 253.519531 -172.285156 241.777344 -173.925781 229.832031 -174.636719 C 221.328125 -175.128906 212.871094 -175.050781 204.433594 -174.386719 C 189.386719 -173.21875 174.582031 -170.453125 159.917969 -166.820312 C 120.246094 -157 84.648438 -138.800781 51.804688 -114.832031 C 35.101562 -102.652344 18.648438 -90.132812 4.238281 -75.230469 C -36.871094 -32.714844 -66.699219 16.496094 -83.089844 73.519531 C -87.183594 87.769531 -89.320312 102.460938 -92.019531 117.015625 C -95.617188 136.429688 -97.394531 156.023438 -97.089844 175.738281 C -96.730469 198.066406 -94.3125 220.15625 -86.621094 241.335938 C -81.683594 254.921875 -74.867188 267.472656 -64.382812 277.640625 C -58.015625 283.816406 -50.515625 287.664062 -41.394531 288.449219 C -33.554688 289.125 -25.714844 288.40625 -17.90625 289.203125 C -6.289062 290.398438 3.53125 294.839844 10.46875 304.671875 C 16.238281 312.835938 18.738281 322.117188 19.792969 331.855469 C 21.929688 351.347656 19.097656 370.265625 12.808594 388.710938 C 9.738281 397.734375 5.476562 406.136719 -1.261719 413.074219 C -10.382812 422.476562 -22.285156 423.714844 -33.238281 416.527344 C -42.675781 410.332031 -49.683594 401.816406 -55.847656 392.605469 C -71.503906 369.230469 -84.875 344.53125 -97.460938 319.394531 C -106.988281 300.363281 -116.359375 281.253906 -123.816406 261.289062 C -129.496094 246.082031 -132.882812 230.347656 -134.757812 214.25 C -136.785156 196.871094 -137.929688 179.460938 -137.886719 161.960938 C -137.851562 146.496094 -136.828125 131.097656 -135.289062 115.722656 C -133.050781 93.40625 -129.574219 71.28125 -125.121094 49.304688 C -122.894531 38.316406 -120.25 27.40625 -118.148438 16.382812 C -116.941406 10.09375 -115.820312 3.796875 -116.289062 -2.785156 C -116.671875 -8.105469 -121.554688 -9.890625 -125.929688 -7.800781 C -133.636719 -4.109375 -139.742188 1.683594 -145.589844 7.699219 C -150.753906 13.019531 -155.589844 18.65625 -159.910156 24.707031 C -160.449219 25.460938 -160.988281 26.167969 -162.078125 25.773438 C -162.078125 -9.578125 -162.078125 -44.929688 -162.078125 -80.289062 C -159.839844 -81.539062 -159.097656 -83.945312 -157.804688 -85.890625 C -145.230469 -104.820312 -130.507812 -122.109375 -116.347656 -139.8125 C -105.15625 -153.804688 -94.15625 -167.953125 -84.527344 -183.105469 C -81.828125 -187.355469 -79.285156 -191.722656 -78.148438 -196.703125 C -77.035156 -201.5625 -79.128906 -204.40625 -84.121094 -204.8125 C -87.664062 -205.09375 -91.175781 -204.8125 -94.617188 -203.878906 C -118.699219 -197.320312 -139.976562 -185.511719 -158.917969 -169.382812 C -159.839844 -168.597656 -160.59375 -167.480469 -162.070312 -167.796875 C -162.011719 -172.328125 -162.011719 -176.929688 -162.011719 -181.53125 Z M -162.011719 -181.53125 "/><path style=" stroke:none;fill-rule:nonzero;fill:#f4f0e8;fill-opacity:1;" d="M -162.011719 254.921875 C -161.160156 255.484375 -160.460938 256.113281 -159.167969 255.808594 C -156.738281 255.246094 -154.734375 256.25 -153.003906 258.039062 C -149.214844 261.972656 -146.625 266.730469 -144.039062 271.421875 C -127.371094 301.589844 -111.273438 332.058594 -95.597656 362.742188 C -81.59375 390.152344 -69.34375 418.339844 -59.59375 447.558594 C -58.085938 452.082031 -56.320312 456.511719 -53.832031 460.628906 C -48.816406 468.953125 -41.179688 472.855469 -31.800781 473.203125 C -7.921875 474.105469 10.625 464.195312 24 444.589844 C 32.199219 432.578125 39.09375 419.8125 43.246094 405.808594 C 49.136719 385.921875 56 366.316406 60.835938 346.140625 C 64.785156 329.628906 67.335938 312.878906 67.976562 295.898438 C 68.800781 274.367188 65.367188 253.382812 58.675781 233.035156 C 47.914062 200.359375 39.332031 167.089844 30.625 133.851562 C 27.417969 121.605469 25.101562 109.164062 25.675781 96.410156 C 26.800781 71.730469 35.269531 49.890625 51.332031 31.0625 C 65.492188 14.46875 83.464844 3.683594 103.824219 -3.527344 C 113.914062 -7.089844 124.339844 -9.5 134.542969 -12.679688 C 137.996094 -13.761719 141.222656 -15.191406 144.160156 -17.472656 C 148.679688 -20.980469 147.140625 -26.414062 144.777344 -29.742188 C 138.398438 -38.765625 129.1875 -44.164062 119.515625 -48.820312 C 110.628906 -53.09375 101.214844 -55.996094 91.417969 -57.066406 C 81.8125 -58.109375 72.207031 -57.558594 62.691406 -55.578125 C 49.789062 -52.890625 37.664062 -48.113281 25.867188 -42.410156 C 21.738281 -40.417969 17.589844 -38.460938 13.449219 -36.480469 C 12.042969 -35.804688 10.414062 -35.480469 9.140625 -36.269531 C 7.632812 -37.203125 8.445312 -38.84375 8.839844 -40.160156 C 10.210938 -44.792969 12.832031 -48.796875 15.554688 -52.710938 C 22.449219 -62.632812 30.761719 -71.316406 39.554688 -79.527344 C 57.136719 -95.925781 76.1875 -110.355469 97.132812 -122.210938 C 121.707031 -136.113281 147.914062 -145.234375 175.988281 -148.710938 C 194.976562 -151.0625 213.757812 -150.160156 232.113281 -144.4375 C 249.851562 -138.902344 264.496094 -128.890625 275.25 -113.527344 C 279.117188 -107.992188 279.601562 -102.101562 276.316406 -98.34375 C 274.226562 -95.957031 271.988281 -93.675781 269.253906 -91.964844 C 266.015625 -89.953125 263.035156 -87.589844 260.324219 -84.925781 C 254.015625 -78.75 253.125 -71.742188 257.558594 -64.015625 C 261.335938 -57.445312 266.78125 -52.429688 272.628906 -47.808594 C 285.921875 -37.3125 300.625 -29 315.191406 -20.488281 C 329.53125 -12.109375 343.90625 -3.785156 357.335938 6.058594 C 366.140625 12.511719 373.980469 20.015625 381.335938 28.058594 C 382.472656 29.292969 383.6875 30.464844 384.746094 31.769531 C 395.847656 45.535156 410.804688 51.261719 427.878906 53.285156 C 445.820312 55.421875 463.894531 56.613281 481.664062 60.113281 C 494.613281 62.667969 507.320312 65.960938 519.007812 72.382812 C 533.359375 80.269531 541.300781 92.203125 542.503906 108.679688 C 543.707031 125.167969 540.320312 140.859375 534.585938 156.089844 C 527.925781 173.792969 519.996094 190.96875 511.910156 208.0625 C 510.695312 210.628906 509.265625 213.082031 507.570312 215.332031 C 503.046875 221.335938 498.3125 222.4375 491.214844 220.222656 C 485.074219 218.3125 479.125 215.722656 472.925781 214.027344 C 466.550781 212.28125 459.914062 211.640625 453.289062 211.417969 C 445 211.136719 436.675781 211.046875 428.488281 212.585938 C 422.570312 213.6875 416.542969 214.6875 411.515625 218.445312 C 408.273438 220.863281 407.890625 223 409.949219 226.566406 C 412.234375 230.527344 415.753906 233.328125 419.09375 236.25 C 425.472656 241.820312 431.488281 247.722656 437.070312 254.089844 C 443.558594 261.5 449.699219 269.21875 456.582031 276.292969 C 458.84375 278.621094 460.789062 281.296875 462.589844 283.996094 C 465.613281 288.53125 464.03125 292.738281 461.238281 296.75 C 459.179688 299.710938 456.808594 302.433594 455.019531 305.605469 C 452.308594 310.394531 454.234375 314.085938 457.359375 316.984375 C 461.410156 320.730469 466.378906 322.847656 471.417969 324.65625 C 485.1875 329.628906 499.4375 332.53125 513.914062 334.566406 C 534.269531 337.433594 554.730469 337.984375 575.234375 338.054688 C 596.605469 338.109375 617.121094 333.847656 637.164062 326.535156 C 662.570312 317.257812 686.539062 305.03125 710.171875 292.015625 C 722.542969 285.199219 735.03125 278.53125 748.503906 274.007812 C 754.429688 272.03125 760.101562 272.277344 764.207031 277.484375 C 775.148438 291.386719 790.03125 300.082031 804.878906 308.84375 C 821.308594 318.539062 836.222656 330.269531 850.777344 342.507812 C 855.785156 346.714844 860.777344 350.941406 865.941406 354.945312 C 870.5625 358.535156 875.488281 361.75 881.597656 362.089844 C 883.6875 362.210938 885.824219 361.875 887.929688 361.671875 C 890.179688 361.460938 891.84375 362.15625 892.933594 364.269531 C 896.242188 370.625 898.511719 377.398438 898.671875 384.484375 C 899.019531 400.027344 898.726562 415.59375 898.828125 431.148438 C 898.851562 433.769531 898.074219 434.851562 895.375 434.726562 C 880.550781 434.050781 871.609375 428.742188 866.164062 415.582031 C 862.8125 407.472656 860.855469 398.914062 858.347656 390.546875 C 852.160156 369.828125 839.902344 353.136719 824.277344 338.671875 C 805.96875 321.734375 783.910156 312.992188 759.492188 309.789062 C 745.398438 307.941406 731.6875 310.441406 718.15625 314.296875 C 696.359375 320.519531 675.519531 329.371094 654.441406 337.558594 C 639.03125 343.542969 623.6875 349.59375 607.695312 353.945312 C 590.214844 358.714844 572.523438 359.511719 554.617188 358.199219 C 545.460938 357.535156 536.285156 356.984375 527.128906 356.351562 C 509.941406 355.171875 492.835938 353.179688 475.773438 350.851562 C 459.496094 348.625 443.234375 346.308594 426.96875 344.023438 C 406.769531 341.191406 386.554688 338.433594 366.367188 335.511719 C 357.71875 334.261719 349.089844 332.710938 340.824219 329.785156 C 335.097656 327.761719 329.597656 325.253906 325.71875 320.15625 C 322.308594 315.691406 321.769531 310.53125 321.835938 305.253906 C 321.871094 301.871094 321.566406 298.539062 321.003906 295.234375 C 320.410156 291.734375 315.359375 288.753906 311.21875 288.597656 C 301.199219 288.226562 291.953125 291.542969 282.605469 294.320312 C 272.371094 297.371094 262.246094 300.777344 251.988281 303.726562 C 248.75 304.660156 245.332031 305.253906 241.855469 305.253906 C 236.007812 305.253906 232.664062 301.789062 232.566406 295.503906 C 232.464844 288.890625 234.039062 282.589844 235.828125 276.304688 C 237.433594 270.613281 239.347656 265.042969 241.800781 259.644531 C 244.710938 253.210938 247.996094 247.027344 251.71875 241.007812 C 253.632812 237.925781 255.679688 234.933594 257.859375 232.101562 C 261.121094 227.835938 265.015625 224.136719 269.636719 221.234375 C 278.433594 215.722656 288.339844 213.789062 298.308594 211.796875 C 309.488281 209.558594 320.441406 206.457031 331.140625 202.453125 C 342.386719 198.234375 353.554688 193.78125 365.074219 190.28125 C 379.796875 185.804688 394.855469 183.230469 410.230469 183.421875 C 433.546875 183.703125 456.863281 184.320312 480.179688 185.039062 C 485.320312 185.199219 490.40625 185.210938 495.5 184.566406 C 502.328125 183.703125 507.851562 180.394531 512.125 175.132812 C 524.179688 160.296875 531.730469 143.457031 533.472656 124.347656 C 534.609375 111.898438 532.875 99.976562 524.574219 89.839844 C 518.996094 83.035156 511.808594 78.480469 503.878906 74.980469 C 491.730469 69.617188 478.84375 67.0625 465.785156 65.230469 C 448.484375 62.800781 431.019531 61.992188 413.71875 59.515625 C 399.863281 57.539062 388.0625 51.757812 379.457031 40.800781 C 360.890625 17.136719 336.785156 0.601562 310.972656 -13.929688 C 293.414062 -23.816406 275.914062 -33.816406 259.492188 -45.535156 C 250.3125 -52.082031 241.664062 -59.214844 235.847656 -69.144531 C 230.609375 -78.097656 229.539062 -87.488281 232.484375 -97.476562 C 233.667969 -101.480469 235.027344 -105.429688 234.871094 -109.851562 C 234.632812 -116.824219 230.855469 -121.445312 225.738281 -125.136719 C 216.738281 -131.625 206.289062 -134.378906 195.425781 -135.269531 C 163.832031 -137.867188 135.027344 -129.644531 108.863281 -112.03125 C 103.691406 -108.546875 98.832031 -104.550781 95.75 -98.828125 C 93.542969 -94.746094 95.007812 -91.078125 98.527344 -88.480469 C 101.675781 -86.152344 105.21875 -84.488281 108.773438 -83 C 126.914062 -75.410156 144.351562 -66.488281 160.804688 -55.703125 C 167.757812 -51.148438 174.269531 -45.964844 180.792969 -40.835938 C 190.519531 -33.175781 200.769531 -26.257812 210.914062 -19.171875 C 217.71875 -14.414062 224.386719 -9.476562 230.203125 -3.46875 C 233.171875 -0.398438 235.679688 2.976562 238.199219 6.382812 C 239.851562 8.597656 240.414062 11.195312 240.933594 13.761719 C 241.617188 17.179688 239.03125 20.261719 235.65625 21.128906 C 225.570312 23.714844 215.457031 21.960938 205.355469 21.464844 C 197.6875 21.09375 190.027344 20.441406 182.355469 20.105469 C 169.644531 19.53125 156.992188 18.273438 144.328125 17.179688 C 126.433594 15.652344 108.59375 15.210938 91.566406 22.277344 C 63.109375 34.085938 46.359375 55.421875 41.46875 85.746094 C 39.152344 100.121094 40.78125 114.484375 43.863281 128.65625 C 49.21875 153.34375 53.90625 178.179688 60.882812 202.496094 C 64.804688 216.164062 69.722656 229.546875 72.726562 243.472656 C 75.007812 254.023438 76.449219 264.664062 76.875 275.472656 C 77.976562 303.355469 72.644531 330.292969 64.894531 356.800781 C 59.105469 376.609375 52.828125 396.304688 46.058594 415.796875 C 41.019531 430.273438 33.460938 443.632812 24.359375 456.007812 C 12.988281 471.460938 -2.722656 479.886719 -21.238281 483.628906 C -28.820312 485.171875 -36.445312 485.980469 -44.136719 484.710938 C -60.175781 482.042969 -69.367188 473 -72.4375 456.996094 C -75.597656 440.542969 -79.996094 424.492188 -87.644531 409.464844 C -92.636719 399.644531 -99.117188 390.859375 -106.011719 382.347656 C -111.746094 375.261719 -116.664062 367.632812 -121.464844 359.90625 C -134.039062 339.648438 -145.511719 318.683594 -159.730469 299.460938 C -160.359375 298.617188 -160.855469 297.640625 -162 297.359375 C -162.011719 283.199219 -162.011719 269.058594 -162.011719 254.921875 Z M -162.011719 254.921875 "/><path style=" stroke:none;fill-rule:nonzero;fill:#f4f0e8;fill-opacity:1;" d="M -162.011719 324.386719 C -160.820312 324.960938 -160.257812 326.085938 -159.652344 327.164062 C -149.234375 345.65625 -141.339844 365.195312 -135.535156 385.597656 C -131.835938 398.597656 -128.484375 411.691406 -124.558594 424.625 C -120.261719 438.753906 -115.277344 452.65625 -107.867188 465.523438 C -103.074219 473.835938 -96.394531 480.527344 -88.835938 486.308594 C -80.097656 493 -70.773438 498.714844 -60.378906 502.515625 C -49.4375 506.519531 -38.390625 506.757812 -27.402344 502.910156 C -15.882812 498.871094 -4.738281 493.910156 5.867188 487.835938 C 19.78125 479.875 29.5 468.007812 37.316406 454.207031 C 48.746094 434.027344 56.957031 412.601562 63.761719 390.511719 C 67.628906 377.949219 72.554688 365.722656 76.617188 353.214844 C 83.140625 333.113281 87.921875 312.566406 90.632812 291.601562 C 93.679688 268.046875 93.21875 244.574219 87.988281 221.269531 C 81.878906 194.105469 77.011719 166.71875 72.644531 139.230469 C 70.847656 127.878906 69.328125 116.464844 69.371094 104.96875 C 69.429688 90.335938 71.835938 76.207031 81.847656 64.578125 C 90.539062 54.464844 101.597656 49.078125 114.9375 48.496094 C 128.660156 47.886719 141.503906 51.65625 154.101562 56.558594 C 162.347656 59.765625 170.21875 63.8125 178.160156 67.671875 C 186.832031 71.878906 195.546875 73.285156 204.816406 70.125 C 219.269531 65.195312 233.339844 67.210938 247.308594 72.351562 C 259.839844 76.960938 271.988281 82.484375 284.371094 87.445312 C 292.175781 90.570312 300.085938 93.441406 308.476562 94.472656 C 315.707031 95.363281 322.578125 94.746094 328.203125 89.210938 C 330.464844 86.996094 331.679688 84.207031 332.488281 81.425781 C 334.355469 74.972656 334.589844 68.210938 335.164062 61.53125 C 335.402344 58.730469 335.828125 56.0625 337.15625 53.464844 C 338.425781 50.980469 340.183594 50.789062 342.363281 51.476562 C 347.3125 53.015625 350.992188 56.523438 354.78125 59.796875 C 361.664062 65.75 368.445312 71.777344 376.929688 75.523438 C 383.753906 78.535156 390.898438 79.832031 398.242188 80.390625 C 408.90625 81.203125 419.613281 80.773438 430.285156 81.4375 C 445.550781 82.382812 460.847656 83.226562 475.378906 88.636719 C 482.542969 91.300781 488.863281 95.195312 493.003906 101.976562 C 497.332031 109.074219 496.308594 117.183594 490.40625 123.03125 C 484.433594 128.949219 476.816406 130.996094 468.933594 132.402344 C 461.769531 133.671875 454.503906 133.707031 447.257812 133.449219 C 424.089844 132.636719 401.683594 136.507812 379.796875 143.894531 C 372.351562 146.414062 364.792969 148.597656 357.234375 150.78125 C 339.226562 155.988281 321.433594 155.222656 303.796875 149.183594 C 297.273438 146.957031 290.78125 144.628906 284.292969 142.332031 C 278.847656 140.421875 273.269531 139.195312 267.535156 138.566406 C 257.039062 137.417969 248.660156 141.140625 242.179688 149.304688 C 235.871094 157.257812 232.058594 166.539062 229.023438 176.054688 C 220.214844 203.644531 211.285156 231.210938 203.625 259.160156 C 200.328125 271.207031 195.335938 282.636719 191.285156 294.402344 C 183.019531 318.449219 175.371094 342.6875 171.320312 367.882812 C 168.914062 382.863281 167.046875 397.890625 166.316406 413.074219 C 165.609375 427.652344 165.699219 442.21875 166.484375 456.769531 C 166.765625 461.96875 167.519531 467.128906 167.753906 472.328125 C 168.316406 484.472656 166.5625 495.992188 157.746094 505.316406 C 153.605469 509.691406 148.511719 512.683594 143.179688 515.292969 C 139.601562 517.035156 135.957031 518.644531 132.675781 520.917969 C 128.039062 524.109375 127.21875 528.632812 130.367188 533.300781 C 132.347656 536.226562 135.117188 538.261719 138.050781 540.09375 C 139.164062 540.792969 140.234375 541.578125 141.324219 542.332031 C 127.714844 542.332031 114.105469 542.332031 100.496094 542.332031 C 100 541.5 99.585938 540.609375 99 539.847656 C 90.800781 529.148438 87.210938 517.136719 88.617188 503.695312 C 89.742188 492.945312 94.738281 484.339844 103.058594 477.558594 C 108.75 472.910156 115.320312 469.851562 122.023438 467.109375 C 131.03125 463.40625 136.148438 456.660156 138.558594 447.445312 C 142.371094 432.871094 144.035156 417.96875 145.304688 403.03125 C 146.519531 388.789062 148.015625 374.585938 150.3125 360.492188 C 154.40625 335.320312 159.996094 310.429688 164.886719 285.402344 C 167.597656 271.523438 170.464844 257.6875 170.917969 243.515625 C 171.265625 232.472656 171.21875 221.4375 169.902344 210.4375 C 168.890625 201.890625 167.292969 193.488281 163.988281 185.511719 C 162.480469 181.878906 160.703125 178.257812 157.464844 175.703125 C 153.796875 172.8125 149.929688 173.332031 147.148438 177.109375 C 143.4375 182.171875 142.257812 188.191406 140.917969 194.117188 C 137.871094 207.558594 136.195312 221.257812 133.597656 234.777344 C 130.15625 252.761719 125.148438 270.355469 120.019531 287.898438 C 112.542969 313.523438 104.183594 338.839844 93.78125 363.449219 C 87.628906 378.003906 80.554688 392.1875 74.996094 406.976562 C 66.4375 429.742188 56.304688 451.777344 45.59375 473.585938 C 39.53125 485.925781 30.703125 495.566406 19.015625 502.742188 C 9.984375 508.285156 0.628906 513.28125 -8.257812 519.082031 C -20.226562 526.902344 -33.375 532.871094 -44.296875 542.308594 C -60.738281 542.308594 -77.171875 542.308594 -93.617188 542.308594 C -96.957031 537.316406 -99.679688 531.949219 -102.660156 526.742188 C -109.363281 514.988281 -118.609375 505.191406 -127.15625 494.855469 C -141.148438 477.941406 -153.230469 459.886719 -160.371094 438.898438 C -160.71875 437.886719 -161.148438 436.917969 -162.035156 436.257812 C -162.011719 398.980469 -162.011719 361.683594 -162.011719 324.386719 Z M -162.011719 324.386719 "/><path style=" stroke:none;fill-rule:nonzero;fill:#f4f0e8;fill-opacity:1;" d="M -162.011719 -247.285156 C -155.726562 -248.578125 -150.023438 -251.480469 -144.195312 -253.976562 C -127.652344 -261.085938 -111.445312 -268.96875 -94.492188 -275.15625 C -70.324219 -283.984375 -45.613281 -290.699219 -20.28125 -295.265625 C -3.367188 -298.316406 13.460938 -301.878906 30.390625 -304.929688 C 49.65625 -308.402344 68.96875 -311.585938 88.4375 -313.78125 C 101.40625 -315.242188 114.398438 -316.511719 127.410156 -317.535156 C 144.910156 -318.910156 162.4375 -320.066406 179.949219 -321.226562 C 196.402344 -322.316406 212.871094 -323.453125 229.246094 -325.476562 C 245.476562 -327.492188 261.359375 -331.28125 277.207031 -335.160156 C 288.554688 -337.941406 300.0625 -339.683594 311.726562 -340.042969 C 318.160156 -340.246094 324.613281 -339.851562 330.957031 -338.503906 C 336.414062 -337.34375 341.40625 -335.160156 345.636719 -331.496094 C 354.554688 -323.757812 365.117188 -319.144531 376.085938 -315.277344 C 392.425781 -309.507812 409.242188 -305.660156 426.371094 -303.171875 C 439.878906 -301.214844 453.488281 -301.082031 467.066406 -301.632812 C 478.234375 -302.09375 489.347656 -303.445312 500.269531 -306.164062 C 512.371094 -309.191406 523.40625 -314.332031 531.910156 -323.496094 C 542.671875 -335.09375 556.011719 -341.652344 570.925781 -345.746094 C 581.644531 -348.691406 592.34375 -351.753906 603.171875 -354.238281 C 604.296875 -354.496094 606.074219 -355.394531 606.59375 -354.328125 C 607.234375 -353.011719 605.410156 -352.203125 604.476562 -351.382812 C 599.382812 -346.894531 593.792969 -342.957031 589.496094 -337.601562 C 586.550781 -333.925781 584.332031 -329.941406 584.828125 -325.027344 C 585.503906 -318.269531 589.734375 -314.523438 595.863281 -312.597656 C 603.972656 -310.046875 612.363281 -309.957031 620.765625 -309.796875 C 638.277344 -309.460938 655.023438 -312.417969 670.714844 -320.550781 C 681.523438 -326.152344 691.074219 -333.574219 700.710938 -340.886719 C 704.863281 -344.023438 708.933594 -347.265625 713.691406 -349.535156 C 719.351562 -352.246094 724.972656 -352.292969 730.058594 -348.714844 C 739.371094 -342.148438 748.480469 -335.230469 755.183594 -325.78125 C 764.417969 -312.757812 767.78125 -298.167969 766.433594 -282.375 C 766.171875 -279.386719 765.972656 -276.394531 765.734375 -273.402344 C 765.105469 -265.382812 768.210938 -259.273438 774.710938 -254.527344 C 782.921875 -248.542969 791.210938 -242.671875 799.589844 -236.949219 C 809.65625 -230.0625 819.160156 -222.425781 829.117188 -215.375 C 838.339844 -208.839844 848.664062 -205.847656 859.910156 -205.441406 C 872.757812 -204.980469 884.8125 -207.738281 896.152344 -213.699219 C 898.109375 -214.722656 898.851562 -214.316406 898.804688 -212.089844 C 898.738281 -208.199219 898.78125 -204.316406 898.78125 -200.425781 C 898.78125 -199.425781 898.648438 -198.558594 897.660156 -197.929688 C 889.964844 -193.046875 881.933594 -188.988281 872.554688 -188.953125 C 865.660156 -188.921875 858.867188 -190.269531 852.027344 -191.113281 C 840.082031 -192.597656 829.8125 -197.457031 820.566406 -205.128906 C 811.320312 -212.800781 801.671875 -219.964844 790.976562 -225.585938 C 782.304688 -230.132812 772.96875 -232.222656 763.339844 -233.257812 C 755.535156 -234.101562 747.683594 -234.585938 739.945312 -236.046875 C 737.492188 -236.507812 735.140625 -237.285156 733.015625 -238.601562 C 729.730469 -240.636719 728.605469 -243.863281 729.867188 -247.53125 C 732.070312 -253.941406 736.636719 -258.859375 740.5625 -264.15625 C 745.535156 -270.859375 750.191406 -277.710938 751.730469 -286.144531 C 754.847656 -303.183594 743.070312 -315.78125 728.222656 -315.601562 C 718.328125 -315.488281 709.363281 -312.171875 700.566406 -308.203125 C 688.488281 -302.746094 677.125 -295.886719 665.28125 -289.945312 C 650.660156 -282.613281 635.003906 -278.832031 618.976562 -276.292969 C 606.738281 -274.355469 594.433594 -273.132812 582.039062 -273.738281 C 572.253906 -274.222656 562.492188 -275.167969 552.996094 -277.867188 C 548.710938 -279.082031 544.785156 -280.9375 541.546875 -284.625 C 540.90625 -282.738281 541.3125 -281.464844 542.277344 -280.386719 C 544.28125 -278.125 546.507812 -276.191406 549.433594 -275.078125 C 563.535156 -269.691406 578.28125 -266.84375 592.972656 -263.75 C 602.160156 -261.816406 611.484375 -261.085938 620.832031 -260.476562 C 634.308594 -259.601562 646.632812 -263.457031 658.714844 -268.890625 C 670.46875 -274.175781 681.984375 -280.046875 694.121094 -284.480469 C 700.589844 -286.84375 707.101562 -289.160156 714.121094 -289.261719 C 715.71875 -289.28125 717.292969 -289.171875 718.855469 -288.808594 C 724.199219 -287.5625 725.886719 -283.492188 722.871094 -278.824219 C 720.734375 -275.515625 717.773438 -272.929688 714.660156 -270.621094 C 707.417969 -265.269531 699.902344 -260.265625 692.726562 -254.820312 C 683.425781 -247.757812 675.417969 -239.457031 670.0625 -228.894531 C 668.332031 -225.488281 667.171875 -221.898438 666.789062 -218.050781 C 665.945312 -209.402344 671.414062 -206.847656 677.621094 -205.996094 C 685.605469 -204.890625 693.480469 -206.183594 701.34375 -207.199219 C 711.128906 -208.46875 720.878906 -209.808594 730.742188 -210.414062 C 742.667969 -211.144531 754.351562 -210.191406 765.792969 -206.792969 C 779.929688 -202.585938 791.199219 -194.339844 799.566406 -182.171875 C 801.671875 -179.113281 803.730469 -176.03125 805.800781 -172.949219 C 811.558594 -164.34375 819.613281 -159.273438 829.699219 -157.214844 C 837.382812 -155.636719 845.144531 -154.277344 852.296875 -150.800781 C 861.203125 -146.460938 867.886719 -140.34375 869.820312 -130.027344 C 871.394531 -121.613281 867.929688 -113.425781 860.507812 -108.9375 C 857.539062 -107.148438 854.378906 -105.765625 851.160156 -104.597656 C 840.238281 -100.617188 830.949219 -94.191406 822.894531 -85.925781 C 813.199219 -75.960938 804.042969 -65.554688 797.398438 -53.21875 C 795.089844 -48.933594 793.15625 -44.476562 792.449219 -39.585938 C 792.246094 -38.144531 792.019531 -36.617188 793.234375 -35.636719 C 794.539062 -34.59375 795.980469 -35.433594 797.207031 -36.078125 C 802.546875 -38.820312 807.675781 -41.949219 813.269531 -44.207031 C 830.308594 -51.101562 846.269531 -47.832031 861.777344 -39.359375 C 877.714844 -30.65625 889.222656 -17.699219 898.007812 -2.074219 C 898.300781 -1.546875 898.636719 -0.9375 898.648438 -0.367188 C 898.703125 3.402344 898.683594 7.183594 898.683594 11.027344 C 897.320312 10.824219 897.21875 9.800781 896.835938 9.09375 C 892.40625 0.960938 888.390625 -7.40625 882.53125 -14.695312 C 871.835938 -28.011719 858.394531 -37.132812 841.554688 -40.519531 C 829.25 -42.992188 818.21875 -39.125 808.128906 -32.128906 C 800.492188 -26.832031 795.082031 -19.585938 790.289062 -11.769531 C 786.039062 -4.832031 782.886719 2.695312 778.726562 9.667969 C 777.871094 11.105469 776.90625 12.492188 775.824219 13.773438 C 774.9375 14.832031 773.980469 16.136719 772.316406 15.640625 C 770.761719 15.179688 770.371094 13.738281 770.042969 12.320312 C 769.144531 8.386719 769.300781 4.382812 769.636719 0.445312 C 770.820312 -13.402344 773.496094 -26.945312 777.859375 -40.171875 C 783.460938 -57.109375 792.851562 -71.664062 805.203125 -84.40625 C 813.277344 -92.742188 821.738281 -100.605469 832.175781 -106.027344 C 837.226562 -108.644531 842.578125 -110.433594 847.964844 -112.132812 C 850.496094 -112.929688 852.984375 -113.855469 855.3125 -115.136719 C 862.160156 -118.871094 863.804688 -126.742188 859.089844 -132.984375 C 855.839844 -137.292969 851.207031 -139.375 846.289062 -141.015625 C 839.664062 -143.222656 832.726562 -144.1875 826.101562 -146.4375 C 815.078125 -150.183594 806.710938 -157.023438 800.761719 -166.988281 C 797.421875 -172.589844 794.25 -178.292969 790.132812 -183.421875 C 781.628906 -194.003906 770.550781 -200.222656 757.445312 -203.023438 C 746.109375 -205.453125 734.691406 -205.140625 723.253906 -203.632812 C 706.628906 -201.4375 690.644531 -196.894531 675.136719 -190.628906 C 665.101562 -186.570312 656.375 -180.449219 648.398438 -173.230469 C 646.296875 -171.316406 644.070312 -169.550781 641.664062 -168.101562 C 637.457031 -165.558594 634.835938 -167.054688 634.070312 -171.890625 C 633.238281 -177.1875 634.160156 -182.488281 635.242188 -187.671875 C 637.46875 -198.414062 640.460938 -208.941406 643.957031 -219.332031 C 644.757812 -221.707031 645.058594 -224.148438 645.441406 -226.589844 C 645.722656 -228.378906 644.824219 -228.660156 643.441406 -227.972656 C 641.132812 -226.835938 638.964844 -225.476562 637.207031 -223.550781 C 632.609375 -218.535156 627.996094 -213.542969 623.429688 -208.503906 C 620.628906 -205.410156 617.75 -202.441406 614.242188 -200.144531 C 608.855469 -196.636719 604.0625 -197.019531 599.730469 -201.753906 C 596.109375 -205.722656 592.882812 -210.066406 589.453125 -214.214844 C 579.160156 -226.679688 567.753906 -237.734375 552.277344 -243.628906 C 540.78125 -248.003906 528.949219 -251.300781 516.972656 -254.023438 C 497.671875 -258.417969 479.179688 -264.953125 461.601562 -274.167969 C 450.429688 -280.027344 438.285156 -283.289062 426.113281 -286.4375 C 402.269531 -292.613281 378.480469 -299.023438 354.613281 -305.109375 C 346.246094 -307.246094 337.742188 -308.808594 328.992188 -308.855469 C 322.578125 -308.875 316.574219 -307.1875 310.53125 -305.601562 C 302.457031 -303.476562 294.246094 -302.261719 285.957031 -301.8125 C 267.960938 -300.824219 249.941406 -300.644531 231.933594 -300.035156 C 213.320312 -299.40625 194.714844 -298.515625 176.125 -297.15625 C 159.566406 -295.953125 143.054688 -294.34375 126.554688 -292.644531 C 108.558594 -290.789062 90.5625 -288.945312 72.65625 -286.402344 C 51.949219 -283.46875 31.265625 -280.375 10.546875 -277.5625 C -2.21875 -275.832031 -15.050781 -274.660156 -27.816406 -272.996094 C -47.488281 -270.433594 -66.644531 -265.742188 -85.304688 -258.949219 C -109.878906 -249.984375 -132.824219 -237.679688 -155.589844 -224.992188 C -157.605469 -223.867188 -159.371094 -221.964844 -162.023438 -222.324219 C -162.011719 -230.671875 -162.011719 -238.972656 -162.011719 -247.285156 Z M -162.011719 -247.285156 "/><path style=" stroke:none;fill-rule:nonzero;fill:#f4f0e8;fill-opacity:1;" d="M 167.835938 542.34375 C 179.566406 533.378906 191.804688 525.496094 206.839844 523.167969 C 212.195312 522.332031 217.300781 520.386719 221.734375 517.183594 C 227.898438 512.71875 229.449219 506.023438 229.773438 498.949219 C 230.167969 490.367188 228.910156 481.855469 228.527344 473.292969 C 227.738281 455.65625 232.082031 439.699219 243.238281 425.816406 C 256.535156 409.285156 274.316406 399.441406 293.730469 392.03125 C 312.433594 384.886719 331.914062 381.199219 351.710938 378.847656 C 364.09375 377.375 376.535156 376.53125 388.972656 376.519531 C 402.382812 376.496094 415.800781 376.925781 429.195312 378.183594 C 461.160156 381.1875 492.6875 386.957031 524.179688 392.964844 C 537.027344 395.414062 549.9375 397.371094 563.074219 397.484375 C 585.335938 397.6875 606.558594 392.894531 627.050781 384.527344 C 648.308594 375.84375 669.285156 366.441406 691.0625 359.042969 C 709.261719 352.855469 727.707031 347.792969 746.871094 345.703125 C 759.324219 344.339844 771.617188 345.015625 783.371094 349.773438 C 800.109375 356.542969 810.648438 369.128906 816.507812 385.890625 C 820.726562 397.945312 821.1875 410.410156 820.476562 423.050781 C 819.710938 436.628906 817 450.046875 817.453125 463.710938 C 817.5625 467.097656 818.046875 470.390625 818.980469 473.632812 C 822.277344 485.105469 832.0625 488.578125 841.339844 487.445312 C 854.863281 485.789062 866.894531 480.078125 878.59375 473.554688 C 884.386719 470.324219 889.929688 466.703125 895.339844 462.855469 C 896.175781 462.261719 897.074219 461.203125 898.132812 461.652344 C 899.3125 462.160156 898.75 463.53125 898.761719 464.511719 C 898.804688 470.347656 898.785156 476.171875 898.785156 482.011719 C 898.785156 483.167969 898.726562 484.160156 897.535156 484.96875 C 885.65625 492.988281 873.601562 500.695312 860.585938 506.757812 C 847.820312 512.707031 834.773438 517.9375 820.703125 519.871094 C 808.453125 521.546875 796.667969 520.117188 786.285156 512.738281 C 777.78125 506.6875 773.664062 498.207031 773.40625 487.828125 C 773.179688 478.457031 775.148438 469.390625 777.308594 460.371094 C 780.335938 447.75 783.808594 435.199219 784.710938 422.183594 C 785.621094 408.925781 784.179688 396.179688 775.070312 385.519531 C 769.390625 378.871094 762.078125 375.035156 753.597656 373.3125 C 739.226562 370.390625 725.277344 373.011719 711.511719 376.914062 C 692.941406 382.1875 675.113281 389.488281 657.601562 397.53125 C 642.507812 404.457031 627.828125 412.296875 612.125 417.867188 C 597.875 422.917969 583.175781 425.605469 568.136719 426.921875 C 543.617188 429.070312 520.144531 424.324219 496.996094 416.921875 C 474.421875 409.710938 451.65625 403.300781 428.105469 400.039062 C 410.277344 397.574219 392.359375 396.933594 374.429688 397.835938 C 351.304688 399.003906 328.574219 402.511719 307.023438 411.578125 C 293.503906 417.269531 280.714844 424.132812 270.3125 434.78125 C 257.253906 448.144531 252.101562 464.027344 254.675781 482.515625 C 256.261719 493.921875 259.570312 504.933594 262.144531 516.113281 C 264.125 524.753906 265.699219 533.425781 264.890625 542.355469 C 232.53125 542.34375 200.183594 542.34375 167.835938 542.34375 Z M 167.835938 542.34375 "/><path style=" stroke:none;fill-rule:nonzero;fill:#f4f0e8;fill-opacity:1;" d="M -162.011719 -217.0625 C -160.460938 -217.21875 -159.210938 -218.074219 -157.917969 -218.828125 C -131.9375 -234.023438 -105.300781 -247.824219 -76.386719 -256.699219 C -60.210938 -261.667969 -43.699219 -264.976562 -26.851562 -266.585938 C -4.1875 -268.746094 18.488281 -270.65625 41.117188 -273.199219 C 64.714844 -275.863281 88.414062 -277.617188 112.058594 -279.847656 C 127.175781 -281.273438 142.257812 -282.9375 157.375 -284.332031 C 168.453125 -285.355469 179.542969 -286.269531 190.644531 -286.976562 C 209.945312 -288.191406 229.269531 -289.171875 248.625 -289.261719 C 269.402344 -289.363281 290.117188 -288.179688 310.835938 -286.796875 C 320.878906 -286.121094 330.925781 -285.617188 340.933594 -284.503906 C 358.234375 -282.578125 374.960938 -278.304688 391.402344 -272.679688 C 417.308594 -263.816406 443.121094 -254.617188 469.675781 -247.8125 C 482.925781 -244.417969 496.570312 -242.832031 509.839844 -239.476562 C 518.679688 -237.238281 527.363281 -234.585938 535.496094 -230.378906 C 540.964844 -227.554688 546 -224.148438 549.824219 -219.242188 C 555.640625 -211.785156 556.867188 -203.261719 555.425781 -194.152344 C 554.347656 -187.3125 552.277344 -180.742188 550.039062 -174.230469 C 546.136719 -162.859375 542.175781 -151.5 539.660156 -139.722656 C 538.082031 -132.378906 536.949219 -124.976562 538.308594 -117.40625 C 539.769531 -109.265625 543.539062 -102.582031 549.972656 -97.296875 C 556.40625 -92.011719 563.90625 -89.042969 571.679688 -86.589844 C 583.378906 -82.890625 595.34375 -80.019531 606.796875 -75.5 C 617.738281 -71.191406 628.019531 -65.714844 636.792969 -57.863281 C 645.453125 -50.113281 651.042969 -40.777344 651.121094 -28.597656 C 651.144531 -24.414062 651.144531 -20.128906 652 -15.941406 C 652.957031 -11.265625 655.417969 -9.992188 659.582031 -12.300781 C 666.902344 -16.359375 672.300781 -22.613281 677.8125 -28.6875 C 680.488281 -31.632812 682.75 -34.894531 684.683594 -38.40625 C 688.667969 -45.636719 689.171875 -53.140625 686.902344 -60.945312 C 684.753906 -68.3125 680.929688 -74.890625 677.328125 -81.585938 C 671.210938 -92.957031 665.023438 -104.304688 662.234375 -117.058594 C 659.804688 -128.226562 659.152344 -139.476562 662.199219 -150.632812 C 666.519531 -166.46875 677.046875 -177.1875 691.085938 -184.847656 C 703.558594 -191.652344 717 -195.433594 731.058594 -196.996094 C 740.136719 -198.007812 749.191406 -197.648438 758.074219 -195.296875 C 771.84375 -191.652344 781.75 -183.128906 788.523438 -170.800781 C 794.292969 -160.285156 799.386719 -149.394531 806.675781 -139.746094 C 810.242188 -135.03125 810.265625 -129.792969 807.957031 -124.4375 C 804.257812 -115.855469 799.0625 -108.175781 793.59375 -100.671875 C 788.398438 -93.53125 782.910156 -86.601562 777.691406 -79.46875 C 766.265625 -63.847656 759.582031 -46.246094 756.097656 -27.304688 C 752.855469 -9.699219 749.359375 7.867188 746.242188 25.492188 C 744.691406 34.265625 743.476562 43.117188 744.320312 52.09375 C 744.722656 56.445312 745.5 60.6875 747.953125 64.410156 C 751.035156 69.101562 755.488281 70.15625 760.359375 67.378906 C 764.308594 65.128906 767.074219 61.664062 769.515625 57.964844 C 776.003906 48.15625 779.894531 37.15625 783.855469 26.191406 C 787.78125 15.324219 791.335938 4.3125 797.015625 -5.832031 C 801.660156 -14.121094 807.542969 -21.253906 815.765625 -26.269531 C 830.140625 -35.042969 844.414062 -34.074219 858.5625 -25.828125 C 871.5625 -18.261719 880.304688 -6.933594 886.433594 6.539062 C 890.515625 15.539062 894.40625 24.625 898.199219 33.75 C 899.582031 37.089844 898.558594 40.699219 898.761719 44.457031 C 897.332031 43.828125 897.207031 42.679688 896.859375 41.800781 C 893.046875 32.398438 889.402344 22.941406 885.476562 13.582031 C 881.011719 2.929688 875.488281 -7.089844 866.785156 -15 C 858.945312 -22.128906 849.992188 -27.191406 839.292969 -27.96875 C 828.273438 -28.777344 818.96875 -24.265625 810.984375 -16.96875 C 801.851562 -8.621094 796.878906 2.289062 792.660156 13.617188 C 787.488281 27.496094 783.609375 41.835938 777.746094 55.46875 C 773.96875 64.261719 769.695312 72.789062 763.070312 79.863281 C 759.121094 84.082031 754.589844 87.445312 748.605469 87.984375 C 741.316406 88.636719 734.972656 84.417969 731.25 76.828125 C 726.851562 67.863281 727.019531 58.570312 729.113281 49.125 C 730.789062 41.597656 733.453125 34.390625 736.042969 27.15625 C 742.992188 7.742188 747.277344 -12.320312 750.976562 -32.542969 C 752.652344 -41.734375 754.488281 -50.890625 757.59375 -59.742188 C 762.148438 -72.742188 770.121094 -83.5625 779.050781 -93.8125 C 785.890625 -101.660156 792.84375 -109.445312 798.230469 -118.421875 C 799.277344 -120.152344 800.164062 -121.984375 800.996094 -123.839844 C 803.019531 -128.351562 803.234375 -132.996094 800.972656 -137.40625 C 795.25 -148.554688 790.367188 -160.136719 784.023438 -170.957031 C 775.890625 -184.816406 763.609375 -192.304688 747.605469 -193.566406 C 725.785156 -195.273438 705.75 -190.054688 687.933594 -177.300781 C 677.035156 -169.507812 670.03125 -158.855469 668.757812 -145.347656 C 667.429688 -131.207031 669.984375 -117.53125 676.238281 -104.675781 C 682.445312 -91.933594 690.050781 -80.078125 700.972656 -70.910156 C 714.097656 -59.898438 710.925781 -44.378906 703.613281 -34.59375 C 699.40625 -28.957031 694.257812 -24.210938 689.070312 -19.566406 C 668.421875 -1.027344 652.855469 21.128906 641.449219 46.335938 C 638.863281 52.046875 636.105469 57.695312 632.585938 62.914062 C 632.046875 63.710938 631.484375 64.535156 630.796875 65.207031 C 627.691406 68.265625 625.265625 67.738281 623.554688 63.734375 C 621.710938 59.40625 621.574219 54.769531 621.226562 50.214844 C 620 34.320312 620.664062 18.453125 622 2.582031 C 622.855469 -7.519531 624.015625 -17.621094 622.835938 -27.820312 C 621.371094 -40.472656 614.90625 -49.449219 603.734375 -55.277344 C 595.199219 -59.730469 585.964844 -61.574219 576.527344 -62.667969 C 563.988281 -64.105469 551.367188 -64.78125 539.050781 -67.976562 C 518.660156 -73.261719 502.730469 -84.710938 491.621094 -102.484375 C 484.285156 -114.203125 484.589844 -126.496094 491.382812 -138.464844 C 494.902344 -144.671875 500.976562 -148.082031 507.289062 -150.699219 C 520.007812 -156 529.109375 -165.121094 536.082031 -176.683594 C 539.984375 -183.160156 543.167969 -189.921875 544.382812 -197.46875 C 546.011719 -207.671875 542.425781 -215.691406 534.101562 -221.617188 C 525.203125 -227.960938 514.902344 -230.828125 504.476562 -233.304688 C 492.441406 -236.148438 480.136719 -237.429688 467.953125 -239.421875 C 449.632812 -242.402344 431.691406 -247.136719 413.707031 -251.648438 C 383.777344 -259.152344 353.609375 -265.324219 323.007812 -269.410156 C 291.535156 -273.605469 259.984375 -276.617188 228.199219 -275.773438 C 211.867188 -275.347656 195.570312 -274.378906 179.296875 -272.792969 C 151.234375 -270.0625 123.472656 -265.222656 95.589844 -261.242188 C 80.890625 -259.152344 66.101562 -257.914062 51.242188 -257.835938 C 34.539062 -257.757812 17.835938 -257.789062 1.132812 -257.6875 C -30.507812 -257.484375 -61.570312 -253.75 -91.511719 -242.851562 C -114.773438 -234.394531 -136.761719 -223.382812 -157.707031 -210.210938 C -159.011719 -209.390625 -160.167969 -208.074219 -162.003906 -208.570312 C -162.011719 -211.402344 -162.011719 -214.226562 -162.011719 -217.0625 Z M -162.011719 -217.0625 "/><path style=" stroke:none;fill-rule:nonzero;fill:#f4f0e8;fill-opacity:1;" d="M 270.714844 542.34375 C 271.449219 536.640625 270.378906 531.0625 269.242188 525.550781 C 267.105469 515.269531 264.597656 505.058594 262.40625 494.789062 C 260.367188 485.226562 259.367188 475.566406 261.3125 465.871094 C 264.035156 452.296875 271.773438 441.867188 282.492188 433.546875 C 299.183594 420.589844 318.394531 413.34375 338.886719 409.105469 C 357.335938 405.292969 376.003906 404.15625 394.765625 404.976562 C 421.265625 406.144531 446.886719 411.78125 471.789062 420.847656 C 488.71875 427.011719 505.332031 434.027344 522.742188 438.855469 C 541.042969 443.925781 559.578125 444.738281 578.394531 442.925781 C 600.878906 440.765625 621.359375 432.589844 641.460938 422.972656 C 657.015625 415.527344 672.820312 408.65625 689.632812 404.527344 C 697.8125 402.511719 706.066406 401.015625 714.546875 402.332031 C 718.507812 402.953125 722.253906 404.222656 725.535156 406.640625 C 731.429688 410.972656 732.925781 417.203125 732.800781 423.984375 C 732.644531 432.722656 729.742188 440.832031 726.324219 448.707031 C 721.609375 459.5625 716.414062 470.203125 711.644531 481.03125 C 706.867188 491.875 702.558594 502.851562 701.714844 514.921875 C 701.0625 524.15625 703.558594 532.175781 709.238281 539.339844 C 710.003906 540.308594 710.691406 541.332031 711.410156 542.332031 C 697.441406 542.332031 683.480469 542.332031 669.511719 542.332031 C 669.1875 542.027344 668.90625 541.679688 668.542969 541.433594 C 660.625 536.054688 657.78125 528.328125 657.769531 519.070312 C 657.757812 509.828125 659.46875 500.792969 660.605469 491.683594 C 661.324219 485.902344 662.101562 480.121094 660.964844 474.285156 C 659.871094 468.683594 656.566406 465.421875 650.910156 464.542969 C 647.816406 464.058594 644.734375 464.261719 641.675781 464.792969 C 631.84375 466.476562 622.699219 470.3125 613.476562 473.902344 C 599.5625 479.3125 585.875 485.308594 571.476562 489.402344 C 563.222656 491.75 555.179688 491.425781 547.464844 487.667969 C 536.429688 482.292969 525.597656 476.5 514.519531 471.203125 C 495.714844 462.203125 476.898438 453.230469 457.640625 445.210938 C 424.785156 431.519531 390.808594 425.636719 355.308594 430.554688 C 338.144531 432.925781 321.78125 437.71875 307.371094 447.761719 C 298.769531 453.757812 292.019531 461.316406 288.703125 471.507812 C 285.8125 480.402344 286.113281 489.480469 287.589844 498.523438 C 289.847656 512.402344 294.933594 525.40625 300.332031 538.304688 C 300.871094 539.597656 301.703125 540.8125 301.457031 542.320312 C 291.222656 542.34375 280.964844 542.34375 270.714844 542.34375 Z M 270.714844 542.34375 "/><path style=" stroke:none;fill-rule:nonzero;fill:#f4f0e8;fill-opacity:1;" d="M 518.894531 542.34375 C 519.402344 539.980469 520.75 537.980469 521.671875 535.785156 C 525.496094 526.664062 527.039062 517.464844 522.683594 508.070312 C 519.792969 501.839844 515.183594 496.96875 509.863281 492.765625 C 497.785156 483.203125 484.152344 476.285156 470.25 469.910156 C 453.175781 462.070312 435.574219 455.726562 416.957031 452.6875 C 392.808594 448.742188 368.898438 449.078125 345.660156 457.773438 C 336.605469 461.15625 328.28125 465.9375 322.601562 474.035156 C 314.851562 485.105469 315.503906 496.769531 321.320312 508.410156 C 326.921875 519.613281 336.390625 526.417969 347.808594 530.757812 C 354.488281 533.300781 361.292969 535.503906 368.019531 537.945312 C 370.683594 538.914062 373.171875 540.261719 375.171875 542.34375 C 355.726562 542.34375 336.277344 542.34375 316.84375 542.34375 C 308.183594 531.085938 301.636719 518.757812 298.195312 504.898438 C 295.652344 494.6875 294.910156 484.453125 298.632812 474.375 C 303.246094 461.902344 312.882812 454.253906 324.3125 448.515625 C 339.765625 440.765625 356.421875 437.773438 373.472656 436.839844 C 395.496094 435.648438 417.015625 438.71875 437.96875 445.570312 C 463.523438 453.914062 487.546875 465.65625 511.042969 478.570312 C 520.132812 483.5625 528.625 489.445312 536.003906 496.800781 C 539.949219 500.738281 543.359375 505.136719 546.867188 509.457031 C 550.488281 513.898438 555.066406 515.472656 560.566406 513.582031 C 563.0625 512.730469 565.515625 511.695312 567.890625 510.523438 C 578.441406 505.351562 588.5625 499.355469 599.316406 494.585938 C 609.257812 490.164062 619.246094 485.925781 630.335938 485.21875 C 637.871094 484.734375 643.351562 488.738281 645.429688 496.070312 C 647.152344 502.167969 647.554688 508.433594 648.242188 514.640625 C 649.503906 526.011719 652.765625 536.101562 663.496094 542.152344 C 663.5625 542.199219 663.605469 542.289062 663.664062 542.355469 C 647.398438 542.355469 631.136719 542.355469 614.871094 542.355469 C 601.429688 532.390625 588.238281 533.796875 571.386719 542.355469 C 553.898438 542.34375 536.394531 542.34375 518.894531 542.34375 Z M 518.894531 542.34375 "/><path style=" stroke:none;fill-rule:nonzero;fill:#f4f0e8;fill-opacity:1;" d="M -28.910156 542.34375 C -21.835938 535.695312 -13.351562 531.039062 -5.367188 525.675781 C 3.585938 519.65625 12.808594 514.078125 22.289062 508.949219 C 35.933594 501.558594 44.402344 489.996094 50.5 476.039062 C 61.070312 451.855469 71.769531 427.71875 82.421875 403.570312 C 90.046875 386.28125 99.113281 369.660156 106.691406 352.328125 C 115.835938 331.4375 124.015625 310.160156 132.832031 289.148438 C 136.554688 280.273438 140.492188 271.46875 146.046875 263.527344 C 146.789062 262.457031 147.722656 261.433594 148.769531 260.667969 C 151.390625 258.769531 153.460938 259.464844 154.4375 262.582031 C 155.664062 266.484375 156.285156 270.523438 156.101562 274.59375 C 155.351562 291.363281 153.4375 308.011719 150.78125 324.601562 C 147.9375 342.359375 145.035156 360.109375 142.976562 377.992188 C 141.390625 391.828125 140.648438 405.753906 138.308594 419.507812 C 137.207031 425.953125 135.769531 432.308594 133.890625 438.574219 C 130.851562 448.695312 124.667969 456.277344 115.792969 461.902344 C 109.144531 466.117188 102.890625 470.886719 97.582031 476.792969 C 88.011719 487.421875 84.445312 499.859375 86.222656 513.976562 C 87.449219 523.707031 90.519531 532.671875 96.792969 540.375 C 97.246094 540.925781 97.546875 541.578125 97.300781 542.34375 C 96.0625 542.34375 94.828125 542.34375 93.589844 542.34375 C 87.671875 534.503906 84.21875 525.6875 82.632812 516 C 79.800781 498.691406 84.175781 483.53125 95.613281 470.3125 C 100.484375 464.691406 105.859375 459.574219 111.359375 454.589844 C 124.058594 443.09375 129.964844 428.269531 132.652344 411.824219 C 134.621094 399.800781 135.273438 387.644531 136.453125 375.542969 C 137.464844 365.171875 138.277344 354.800781 138.90625 344.40625 C 139.175781 339.988281 139.175781 335.554688 137.996094 331.257812 C 136.960938 327.492188 134.890625 326.929688 132.125 329.695312 C 127.625 334.171875 124.542969 339.683594 121.5625 345.195312 C 110.214844 366.160156 98.941406 387.183594 87.730469 408.226562 C 82.320312 418.371094 78.617188 429.292969 73.566406 439.597656 C 64.785156 457.523438 57.472656 476.09375 49.273438 494.28125 C 45.628906 502.371094 39.960938 508.871094 32.4375 513.582031 C 20.230469 521.21875 8.050781 528.890625 -3.5 537.519531 C -5.625 539.105469 -7.707031 540.746094 -9.808594 542.355469 C -16.1875 542.34375 -22.542969 542.34375 -28.910156 542.34375 Z M -28.910156 542.34375 "/></g></svg>